Mirza-Medium.ufo
<glyph name="uni0631" format="1">
  <advance width="319"/>
  <unicode hex="0631"/>
  <outline>
    <contour>
      <point x="170" y="209"/>
      <point x="154" y="184"/>
      <point x="135" y="152" type="curve"/>
      <point x="146" y="142"/>
      <point x="164" y="123"/>
      <point x="180" y="100" type="curve" smooth="yes"/>
      <point x="196" y="78"/>
      <point x="207" y="54"/>
      <point x="207" y="23" type="curve" smooth="yes"/>
      <point x="207" y="-20"/>
      <point x="181" y="-53"/>
      <point x="138" y="-85" type="curve" smooth="yes"/>
      <point x="114" y="-105"/>
      <point x="74" y="-129"/>
      <point x="41" y="-147" type="curve" smooth="yes"/>
      <point x="7" y="-166"/>
      <point x="-17" y="-179"/>
      <point x="-60" y="-202" type="curve"/>
      <point x="-44" y="-225" type="line"/>
      <point x="-21" y="-219"/>
      <point x="2" y="-217"/>
      <point x="21" y="-217" type="curve" smooth="yes"/>
      <point x="43" y="-217"/>
      <point x="65" y="-220"/>
      <point x="86" y="-220" type="curve" smooth="yes"/>
      <point x="117" y="-220"/>
      <point x="140" y="-213"/>
      <point x="164" y="-196" type="curve" smooth="yes"/>
      <point x="186" y="-181"/>
      <point x="205" y="-159"/>
      <point x="218" y="-135" type="curve" smooth="yes"/>
      <point x="254" y="-74"/>
      <point x="262" y="4"/>
      <point x="262" y="50" type="curve" smooth="yes"/>
      <point x="262" y="120"/>
      <point x="242" y="165"/>
      <point x="223" y="196" type="curve" smooth="yes"/>
      <point x="209" y="218"/>
      <point x="197" y="231"/>
      <point x="193" y="235" type="curve"/>
    </contour>
    <contour>
      <point x="87" y="18" type="move" name="center"/>
    </contour>
    <contour>
      <point x="56" y="-255" type="move" name="bottom"/>
    </contour>
    <contour>
      <point x="146" y="261" type="move" name="top"/>
    </contour>
  </outline>
</glyph>
<glyph name="uni0635" format="1">
  <advance width="1007"/>
  <unicode hex="0635"/>
  <outline>
    <contour>
      <point x="951" y="255"/>
      <point x="942" y="281"/>
      <point x="911" y="306" type="curve" smooth="yes"/>
      <point x="889" y="323"/>
      <point x="862" y="334"/>
      <point x="841" y="334" type="curve" smooth="yes"/>
      <point x="769" y="334"/>
      <point x="698" y="265"/>
      <point x="664" y="229" type="curve" smooth="yes"/>
      <point x="622" y="184"/>
      <point x="600" y="152"/>
      <point x="574" y="111" type="curve"/>
      <point x="525" y="117"/>
      <point x="497" y="138"/>
      <point x="467" y="176" type="curve"/>
      <point x="444" y="149"/>
      <point x="428" y="126"/>
      <point x="411" y="96" type="curve"/>
      <point x="440" y="57"/>
      <point x="491" y="-15"/>
      <point x="491" y="-58" type="curve" smooth="yes"/>
      <point x="491" y="-90"/>
      <point x="462" y="-116"/>
      <point x="419" y="-134" type="curve" smooth="yes"/>
      <point x="387" y="-149"/>
      <point x="345" y="-158"/>
      <point x="296" y="-158" type="curve" smooth="yes"/>
      <point x="224" y="-158"/>
      <point x="169" y="-139"/>
      <point x="141" y="-104" type="curve" smooth="yes"/>
      <point x="115" y="-71"/>
      <point x="116" y="-28"/>
      <point x="127" y="28" type="curve"/>
      <point x="100" y="38" type="line"/>
      <point x="81" y="-5"/>
      <point x="70" y="-50"/>
      <point x="68" y="-83" type="curve" smooth="yes"/>
      <point x="66" y="-113"/>
      <point x="69" y="-145"/>
      <point x="81" y="-175" type="curve" smooth="yes"/>
      <point x="96" y="-211"/>
      <point x="122" y="-238"/>
      <point x="159" y="-257" type="curve" smooth="yes"/>
      <point x="194" y="-276"/>
      <point x="237" y="-285"/>
      <point x="288" y="-285" type="curve" smooth="yes"/>
      <point x="380" y="-285"/>
      <point x="438" y="-257"/>
      <point x="477" y="-220" type="curve" smooth="yes"/>
      <point x="530" y="-168"/>
      <point x="545" y="-98"/>
      <point x="545" y="-53" type="curve" smooth="yes"/>
      <point x="545" y="-32"/>
      <point x="542" y="-5"/>
      <point x="537" y="24" type="curve"/>
      <point x="550" y="16"/>
      <point x="567" y="10"/>
      <point x="580" y="8" type="curve" smooth="yes"/>
      <point x="602" y="3"/>
      <point x="629" y="3"/>
      <point x="664" y="3" type="curve" smooth="yes"/>
      <point x="727" y="3"/>
      <point x="799" y="29"/>
      <point x="856" y="73" type="curve" smooth="yes"/>
      <point x="885" y="95"/>
      <point x="908" y="121"/>
      <point x="925" y="148" type="curve" smooth="yes"/>
      <point x="943" y="177"/>
      <point x="951" y="207"/>
      <point x="951" y="237" type="curve" smooth="yes"/>
    </contour>
    <contour>
      <point x="871" y="158"/>
      <point x="857" y="145"/>
      <point x="824" y="130" type="curve" smooth="yes"/>
      <point x="800" y="120"/>
      <point x="769" y="112"/>
      <point x="729" y="112" type="curve" smooth="yes"/>
      <point x="622" y="112" type="line"/>
      <point x="642" y="140"/>
      <point x="663" y="165"/>
      <point x="684" y="186" type="curve" smooth="yes"/>
      <point x="712" y="215"/>
      <point x="743" y="247"/>
      <point x="798" y="247" type="curve" smooth="yes"/>
      <point x="825" y="247"/>
      <point x="850" y="231"/>
      <point x="862" y="217" type="curve" smooth="yes"/>
      <point x="876" y="204"/>
      <point x="879" y="192"/>
      <point x="886" y="174" type="curve"/>
    </contour>
    <contour>
      <point x="700" y="-96" type="move" name="center"/>
    </contour>
    <contour>
      <point x="291" y="-315" type="move" name="bottom"/>
    </contour>
    <contour>
      <point x="821" y="364" type="move" name="top"/>
    </contour>
  </outline>
</glyph>
<glyph name="uni065A" format="1">
  <advance width="0"/>
  <unicode hex="065A"/>
  <outline>
    <contour>
      <point x="72" y="848"/>
      <point x="68" y="857"/>
      <point x="61" y="868" type="curve"/>
      <point x="46" y="849"/>
      <point x="34" y="832"/>
      <point x="27" y="817" type="curve" smooth="yes"/>
      <point x="19" y="805"/>
      <point x="15" y="795"/>
      <point x="10" y="785" type="curve" smooth="yes"/>
      <point x="5" y="772"/>
      <point x="3" y="762"/>
      <point x="2" y="757" type="curve"/>
      <point x="1" y="761"/>
      <point x="-2" y="770"/>
      <point x="-6" y="784" type="curve" smooth="yes"/>
      <point x="-10" y="792"/>
      <point x="-13" y="801"/>
      <point x="-19" y="811" type="curve" smooth="yes"/>
      <point x="-27" y="828"/>
      <point x="-41" y="848"/>
      <point x="-58" y="868" type="curve"/>
      <point x="-64" y="859"/>
      <point x="-68" y="851"/>
      <point x="-71" y="838" type="curve"/>
      <point x="-48" y="811"/>
      <point x="-28" y="779"/>
      <point x="-17" y="747" type="curve" smooth="yes"/>
      <point x="-11" y="731"/>
      <point x="-9" y="716"/>
      <point x="-8" y="700" type="curve"/>
      <point x="10" y="700" type="line"/>
      <point x="12" y="716"/>
      <point x="14" y="734"/>
      <point x="21" y="750" type="curve" smooth="yes"/>
      <point x="32" y="779"/>
      <point x="48" y="808"/>
      <point x="74" y="838" type="curve"/>
    </contour>
    <contour>
      <point x="2" y="868" type="move" name="top"/>
    </contour>
    <contour>
      <point x="3" y="673" type="move" name="_top"/>
    </contour>
  </outline>
</glyph>
<glyph name="uni06E8" format="1">
  <advance width="0"/>
  <unicode hex="06E8"/>
  <outline>
    <contour>
      <point x="-79" y="761"/>
      <point x="-78" y="750"/>
      <point x="-75" y="740" type="curve" smooth="yes"/>
      <point x="-69" y="728"/>
      <point x="-59" y="718"/>
      <point x="-46" y="711" type="curve" smooth="yes"/>
      <point x="-34" y="705"/>
      <point x="-18" y="701"/>
      <point x="0" y="701" type="curve" smooth="yes"/>
      <point x="13" y="701"/>
      <point x="25" y="703"/>
      <point x="36" y="706" type="curve"/>
      <point x="47" y="709"/>
      <point x="56" y="716"/>
      <point x="64" y="723" type="curve"/>
      <point x="77" y="735"/>
      <point x="88" y="757"/>
      <point x="88" y="788" type="curve" smooth="yes"/>
      <point x="88" y="807"/>
      <point x="84" y="824"/>
      <point x="78" y="840" type="curve"/>
      <point x="72" y="855"/>
      <point x="65" y="862"/>
      <point x="63" y="865" type="curve"/>
      <point x="56" y="857"/>
      <point x="47" y="848"/>
      <point x="42" y="837" type="curve"/>
      <point x="48" y="828"/>
      <point x="71" y="798"/>
      <point x="71" y="782" type="curve" smooth="yes"/>
      <point x="71" y="773"/>
      <point x="64" y="764"/>
      <point x="52" y="757" type="curve" smooth="yes"/>
      <point x="38" y="750"/>
      <point x="23" y="746"/>
      <point x="3" y="746" type="curve" smooth="yes"/>
      <point x="-24" y="746"/>
      <point x="-43" y="753"/>
      <point x="-53" y="766" type="curve" smooth="yes"/>
      <point x="-63" y="777"/>
      <point x="-62" y="793"/>
      <point x="-58" y="813" type="curve"/>
      <point x="-68" y="816" type="line"/>
      <point x="-74" y="802"/>
      <point x="-78" y="785"/>
      <point x="-79" y="773" type="curve"/>
    </contour>
    <contour>
      <point x="-18" y="809"/>
      <point x="-10" y="801"/>
      <point x="-3" y="791" type="curve"/>
      <point x="7" y="800"/>
      <point x="16" y="810"/>
      <point x="20" y="815" type="curve"/>
      <point x="16" y="824"/>
      <point x="6" y="833"/>
      <point x="-4" y="839" type="curve"/>
      <point x="-9" y="834"/>
      <point x="-20" y="822"/>
      <point x="-27" y="816" type="curve"/>
    </contour>
    <contour>
      <point x="4" y="865" type="move" name="top"/>
    </contour>
    <contour>
      <point x="4" y="675" type="move" name="_top"/>
    </contour>
  </outline>
</glyph>
<glyph name="uni06F4" format="1">
  <advance width="394"/>
  <unicode hex="06F4"/>
  <outline>
    <contour>
      <point x="326" y="397"/>
      <point x="310" y="393"/>
      <point x="282" y="394" type="curve" smooth="yes"/>
      <point x="244" y="398"/>
      <point x="217" y="410"/>
      <point x="185" y="438" type="curve"/>
      <point x="207" y="470"/>
      <point x="228" y="487"/>
      <point x="259" y="489" type="curve" smooth="yes"/>
      <point x="282" y="490"/>
      <point x="304" y="485"/>
      <point x="322" y="473" type="curve"/>
      <point x="332" y="500" type="line"/>
      <point x="318" y="517"/>
      <point x="293" y="542"/>
      <point x="248" y="542" type="curve" smooth="yes"/>
      <point x="194" y="542"/>
      <point x="161" y="503"/>
      <point x="147" y="466" type="curve"/>
      <point x="130" y="491"/>
      <point x="109" y="522"/>
      <point x="98" y="542" type="curve"/>
      <point x="75" y="513"/>
      <point x="59" y="487"/>
      <point x="43" y="455" type="curve"/>
      <point x="75" y="402"/>
      <point x="99" y="338"/>
      <point x="114" y="267" type="curve" smooth="yes"/>
      <point x="134" y="181"/>
      <point x="140" y="97"/>
      <point x="134" y="0" type="curve"/>
      <point x="170" y="0" type="line"/>
      <point x="187" y="72"/>
      <point x="196" y="138"/>
      <point x="198" y="203" type="curve" smooth="yes"/>
      <point x="201" y="269"/>
      <point x="187" y="331"/>
      <point x="183" y="350" type="curve"/>
      <point x="197" y="342"/>
      <point x="223" y="327"/>
      <point x="258" y="327" type="curve" smooth="yes"/>
      <point x="314" y="327"/>
      <point x="349" y="369"/>
      <point x="360" y="393" type="curve"/>
      <point x="346" y="410" type="line"/>
    </contour>
  </outline>
</glyph>
<glyph name="uni08E6" format="1">
  <advance width="0"/>
  <unicode hex="08E6"/>
  <outline>
    <contour>
      <point x="16" y="-215" type="line"/>
      <point x="20" y="-219"/>
      <point x="25" y="-226"/>
      <point x="27" y="-231" type="curve" smooth="yes"/>
      <point x="27" y="-235"/>
      <point x="29" y="-249"/>
      <point x="2" y="-267" type="curve" smooth="yes"/>
      <point x="-9" y="-275"/>
      <point x="-30" y="-284"/>
      <point x="-41" y="-298" type="curve" smooth="yes"/>
      <point x="-48" y="-309"/>
      <point x="-52" y="-320"/>
      <point x="-51" y="-332" type="curve" smooth="yes"/>
      <point x="-50" y="-349"/>
      <point x="-44" y="-360"/>
      <point x="-19" y="-378" type="curve"/>
      <point x="-13" y="-366" type="line"/>
      <point x="-18" y="-361"/>
      <point x="-23" y="-356"/>
      <point x="-25" y="-349" type="curve" smooth="yes"/>
      <point x="-29" y="-336"/>
      <point x="-14" y="-321"/>
      <point x="-1" y="-313" type="curve" smooth="yes"/>
      <point x="8" y="-308"/>
      <point x="33" y="-296"/>
      <point x="42" y="-284" type="curve" smooth="yes"/>
      <point x="49" y="-274"/>
      <point x="54" y="-262"/>
      <point x="53" y="-249" type="curve" smooth="yes"/>
      <point x="53" y="-231"/>
      <point x="46" y="-222"/>
      <point x="20" y="-202" type="curve"/>
    </contour>
    <contour>
      <point x="-1" y="-180" type="move" name="_bottom"/>
    </contour>
    <contour>
      <point x="-1" y="-380" type="move" name="bottom"/>
    </contour>
  </outline>
</glyph>
<glyph name="uni25A2" format="1">
  <advance width="400"/>
  <unicode hex="25A2"/>
  <outline>
    <contour>
      <point x="43" y="65"/>
      <point x="64" y="44"/>
      <point x="90" y="44" type="curve" smooth="yes"/>
      <point x="310" y="44" type="line" smooth="yes"/>
      <point x="336" y="44"/>
      <point x="356" y="65"/>
      <point x="356" y="91" type="curve" smooth="yes"/>
      <point x="356" y="311" type="line" smooth="yes"/>
      <point x="356" y="336"/>
      <point x="336" y="357"/>
      <point x="310" y="357" type="curve" smooth="yes"/>
      <point x="90" y="357" type="line" smooth="yes"/>
      <point x="64" y="357"/>
      <point x="43" y="336"/>
      <point x="43" y="311" type="curve" smooth="yes"/>
      <point x="43" y="91" type="line" smooth="yes"/>
    </contour>
    <contour>
      <point x="83" y="296" type="line" smooth="yes"/>
      <point x="83" y="308"/>
      <point x="93" y="318"/>
      <point x="106" y="318" type="curve" smooth="yes"/>
      <point x="295" y="318" type="line" smooth="yes"/>
      <point x="307" y="318"/>
      <point x="317" y="308"/>
      <point x="317" y="296" type="curve" smooth="yes"/>
      <point x="317" y="106" type="line" smooth="yes"/>
      <point x="317" y="94"/>
      <point x="307" y="84"/>
      <point x="295" y="84" type="curve" smooth="yes"/>
      <point x="106" y="84" type="line" smooth="yes"/>
      <point x="93" y="84"/>
      <point x="83" y="94"/>
      <point x="83" y="106" type="curve" smooth="yes"/>
    </contour>
  </outline>
</glyph>
<glyph name="uniFC18" format="1">
  <advance width="699"/>
  <unicode hex="FC18"/>
  <outline>
    <contour>
      <point x="541" y="323"/>
      <point x="479" y="348"/>
      <point x="428" y="375" type="curve" smooth="yes"/>
      <point x="396" y="391"/>
      <point x="362" y="407"/>
      <point x="326" y="407" type="curve" smooth="yes"/>
      <point x="308" y="407"/>
      <point x="290" y="403"/>
      <point x="273" y="394" type="curve" smooth="yes"/>
      <point x="248" y="381"/>
      <point x="228" y="358"/>
      <point x="210" y="325" type="curve"/>
      <point x="225" y="303" type="line"/>
      <point x="246" y="323"/>
      <point x="263" y="332"/>
      <point x="295" y="332" type="curve" smooth="yes"/>
      <point x="325" y="332"/>
      <point x="358" y="315"/>
      <point x="396" y="294" type="curve"/>
      <point x="350" y="294"/>
      <point x="306" y="284"/>
      <point x="268" y="266" type="curve" smooth="yes"/>
      <point x="233" y="249"/>
      <point x="204" y="224"/>
      <point x="183" y="193" type="curve"/>
      <point x="174" y="177"/>
      <point x="162" y="157"/>
      <point x="158" y="136" type="curve"/>
      <point x="121" y="125"/>
      <point x="94" y="106"/>
      <point x="77" y="79" type="curve" smooth="yes"/>
      <point x="56" y="47"/>
      <point x="48" y="5"/>
      <point x="56" y="-45" type="curve" smooth="yes"/>
      <point x="66" y="-111"/>
      <point x="73" y="-162"/>
      <point x="79" y="-198" type="curve" smooth="yes"/>
      <point x="90" y="-285"/>
      <point x="95" y="-328"/>
      <point x="100" y="-367" type="curve"/>
      <point x="140" y="-354" type="line"/>
      <point x="139" y="-276"/>
      <point x="136" y="-206"/>
      <point x="129" y="-148" type="curve" smooth="yes"/>
      <point x="126" y="-115"/>
      <point x="115" y="-26"/>
      <point x="107" y="28" type="curve"/>
      <point x="119" y="47"/>
      <point x="166" y="61"/>
      <point x="224" y="58" type="curve" smooth="yes"/>
      <point x="264" y="56"/>
      <point x="290" y="49"/>
      <point x="324" y="39" type="curve"/>
      <point x="348" y="72"/>
      <point x="356" y="94"/>
      <point x="368" y="128" type="curve"/>
      <point x="331" y="164"/>
      <point x="287" y="176"/>
      <point x="265" y="182" type="curve"/>
      <point x="297" y="211"/>
      <point x="358" y="242"/>
      <point x="437" y="242" type="curve" smooth="yes"/>
      <point x="500" y="242"/>
      <point x="552" y="233"/>
      <point x="584" y="224" type="curve"/>
      <point x="611" y="252"/>
      <point x="623" y="270"/>
      <point x="642" y="307" type="curve"/>
    </contour>
    <contour>
      <point x="350" y="0" type="move" name="caret_1"/>
    </contour>
    <contour>
      <point x="404" y="16" type="move" name="bottom_1"/>
    </contour>
    <contour>
      <point x="346" y="437" type="move" name="top_1"/>
    </contour>
    <contour>
      <point x="82" y="266" type="move" name="top_2"/>
    </contour>
    <contour>
      <point x="120" y="-390" type="move" name="bottom_2"/>
    </contour>
  </outline>
</glyph>
<glyph name="uniFC1F" format="1">
  <advance width="840"/>
  <unicode hex="FC1F"/>
  <outline>
    <contour>
      <point x="721" y="321"/>
      <point x="706" y="300"/>
      <point x="692" y="277" type="curve"/>
      <point x="738" y="213" type="line"/>
      <point x="722" y="177"/>
      <point x="708" y="168"/>
      <point x="676" y="168" type="curve" smooth="yes"/>
      <point x="656" y="168"/>
      <point x="634" y="171"/>
      <point x="620" y="187" type="curve"/>
      <point x="607" y="201"/>
      <point x="604" y="221"/>
      <point x="604" y="239" type="curve"/>
      <point x="605" y="249"/>
      <point x="606" y="258"/>
      <point x="607" y="267" type="curve"/>
      <point x="575" y="252" type="line"/>
      <point x="575" y="245"/>
      <point x="574" y="231"/>
      <point x="569" y="217" type="curve" smooth="yes"/>
      <point x="561" y="192"/>
      <point x="545" y="167"/>
      <point x="491" y="167" type="curve" smooth="yes"/>
      <point x="438" y="167"/>
      <point x="407" y="194"/>
      <point x="380" y="221" type="curve" smooth="yes"/>
      <point x="361" y="241"/>
      <point x="338" y="262"/>
      <point x="305" y="262" type="curve" smooth="yes"/>
      <point x="251" y="262"/>
      <point x="211" y="223"/>
      <point x="189" y="187" type="curve" smooth="yes"/>
      <point x="169" y="156"/>
      <point x="153" y="116"/>
      <point x="147" y="79" type="curve"/>
      <point x="115" y="63"/>
      <point x="92" y="42"/>
      <point x="76" y="14" type="curve" smooth="yes"/>
      <point x="57" y="-19"/>
      <point x="49" y="-60"/>
      <point x="55" y="-104" type="curve" smooth="yes"/>
      <point x="87" y="-301"/>
      <point x="95" y="-380"/>
      <point x="99" y="-425" type="curve"/>
      <point x="142" y="-411" type="line"/>
      <point x="141" y="-353"/>
      <point x="134" y="-264"/>
      <point x="124" y="-161" type="curve" smooth="yes"/>
      <point x="119" y="-109"/>
      <point x="114" y="-80"/>
      <point x="107" y="-35" type="curve"/>
      <point x="129" y="-14"/>
      <point x="149" y="1"/>
      <point x="207" y="1" type="curve" smooth="yes"/>
      <point x="250" y="1"/>
      <point x="283" y="-7"/>
      <point x="317" y="-17" type="curve"/>
      <point x="337" y="11"/>
      <point x="350" y="36"/>
      <point x="360" y="68" type="curve"/>
      <point x="343" y="89"/>
      <point x="286" y="126"/>
      <point x="226" y="135" type="curve"/>
      <point x="244" y="158"/>
      <point x="265" y="176"/>
      <point x="302" y="176" type="curve"/>
      <point x="338" y="176"/>
      <point x="359" y="154"/>
      <point x="378" y="130" type="curve" smooth="yes"/>
      <point x="403" y="99"/>
      <point x="427" y="60"/>
      <point x="492" y="60" type="curve" smooth="yes"/>
      <point x="552" y="60"/>
      <point x="577" y="100"/>
      <point x="585" y="128" type="curve"/>
      <point x="589" y="105"/>
      <point x="615" y="69"/>
      <point x="670" y="69" type="curve" smooth="yes"/>
      <point x="708" y="69"/>
      <point x="737" y="87"/>
      <point x="756" y="117" type="curve" smooth="yes"/>
      <point x="780" y="154"/>
      <point x="783" y="199"/>
      <point x="783" y="217" type="curve" smooth="yes"/>
      <point x="783" y="266"/>
      <point x="761" y="316"/>
      <point x="739" y="339" type="curve"/>
    </contour>
    <contour>
      <point x="418" y="0" type="move" name="caret_1"/>
    </contour>
    <contour>
      <point x="581" y="33" type="move" name="bottom_1"/>
    </contour>
    <contour>
      <point x="583" y="314" type="move" name="top_1"/>
    </contour>
    <contour>
      <point x="167" y="260" type="move" name="top_2"/>
    </contour>
    <contour>
      <point x="120" y="-448" type="move" name="bottom_2"/>
    </contour>
  </outline>
</glyph>
<glyph name="uniFC21" format="1">
  <advance width="865"/>
  <unicode hex="FC21"/>
  <outline>
    <contour>
      <point x="808" y="322"/>
      <point x="799" y="351"/>
      <point x="770" y="374" type="curve" smooth="yes"/>
      <point x="748" y="390"/>
      <point x="718" y="402"/>
      <point x="692" y="402" type="curve" smooth="yes"/>
      <point x="633" y="402"/>
      <point x="563" y="342"/>
      <point x="521" y="296" type="curve" smooth="yes"/>
      <point x="479" y="252"/>
      <point x="448" y="204"/>
      <point x="430" y="180" type="curve"/>
      <point x="406" y="184"/>
      <point x="396" y="211"/>
      <point x="379" y="233" type="curve" smooth="yes"/>
      <point x="362" y="257"/>
      <point x="344" y="271"/>
      <point x="312" y="271" type="curve" smooth="yes"/>
      <point x="288" y="271"/>
      <point x="264" y="261"/>
      <point x="243" y="245" type="curve" smooth="yes"/>
      <point x="224" y="231"/>
      <point x="207" y="210"/>
      <point x="194" y="189" type="curve" smooth="yes"/>
      <point x="183" y="172"/>
      <point x="175" y="153"/>
      <point x="169" y="133" type="curve" smooth="yes"/>
      <point x="163" y="116"/>
      <point x="160" y="95"/>
      <point x="160" y="81" type="curve"/>
      <point x="122" y="62"/>
      <point x="99" y="41"/>
      <point x="83" y="15" type="curve" smooth="yes"/>
      <point x="64" y="-13"/>
      <point x="52" y="-53"/>
      <point x="60" y="-104" type="curve" smooth="yes"/>
      <point x="92" y="-301"/>
      <point x="99" y="-380"/>
      <point x="103" y="-425" type="curve"/>
      <point x="146" y="-411" type="line"/>
      <point x="144" y="-333"/>
      <point x="137" y="-246"/>
      <point x="128" y="-161" type="curve" smooth="yes"/>
      <point x="123" y="-109"/>
      <point x="119" y="-80"/>
      <point x="112" y="-35" type="curve"/>
      <point x="134" y="-14"/>
      <point x="155" y="-1"/>
      <point x="212" y="-1" type="curve" smooth="yes"/>
      <point x="255" y="-1"/>
      <point x="291" y="-9"/>
      <point x="325" y="-18" type="curve"/>
      <point x="345" y="10"/>
      <point x="358" y="35"/>
      <point x="368" y="67" type="curve"/>
      <point x="350" y="85"/>
      <point x="286" y="124"/>
      <point x="225" y="134" type="curve"/>
      <point x="240" y="155"/>
      <point x="269" y="178"/>
      <point x="308" y="178" type="curve" smooth="yes"/>
      <point x="354" y="178"/>
      <point x="375" y="149"/>
      <point x="398" y="121" type="curve" smooth="yes"/>
      <point x="420" y="95"/>
      <point x="445" y="72"/>
      <point x="506" y="72" type="curve"/>
      <point x="585" y="73"/>
      <point x="663" y="102"/>
      <point x="713" y="141" type="curve" smooth="yes"/>
      <point x="740" y="161"/>
      <point x="766" y="189"/>
      <point x="781" y="215" type="curve" smooth="yes"/>
      <point x="799" y="245"/>
      <point x="808" y="277"/>
      <point x="808" y="299" type="curve" smooth="yes"/>
    </contour>
    <contour>
      <point x="729" y="225"/>
      <point x="712" y="210"/>
      <point x="682" y="198" type="curve" smooth="yes"/>
      <point x="657" y="187"/>
      <point x="625" y="179"/>
      <point x="586" y="179" type="curve" smooth="yes"/>
      <point x="480" y="179" type="line"/>
      <point x="498" y="204"/>
      <point x="522" y="234"/>
      <point x="541" y="254" type="curve" smooth="yes"/>
      <point x="578" y="292"/>
      <point x="614" y="314"/>
      <point x="653" y="314" type="curve" smooth="yes"/>
      <point x="687" y="314"/>
      <point x="710" y="295"/>
      <point x="722" y="282" type="curve"/>
      <point x="733" y="270"/>
      <point x="738" y="258"/>
      <point x="743" y="241" type="curve"/>
    </contour>
    <contour>
      <point x="434" y="0" type="move" name="caret_1"/>
    </contour>
    <contour>
      <point x="575" y="27" type="move" name="bottom_1"/>
    </contour>
    <contour>
      <point x="673" y="432" type="move" name="top_1"/>
    </contour>
    <contour>
      <point x="174" y="271" type="move" name="top_2"/>
    </contour>
    <contour>
      <point x="127" y="-447" type="move" name="bottom_2"/>
    </contour>
  </outline>
</glyph>
<glyph name="uniFC42" format="1">
  <advance width="421"/>
  <unicode hex="FC42"/>
  <outline>
    <contour>
      <point x="352" y="132"/>
      <point x="313" y="157"/>
      <point x="270" y="170" type="curve"/>
      <point x="286" y="182"/>
      <point x="289" y="203"/>
      <point x="282" y="240" type="curve" smooth="yes"/>
      <point x="277" y="265"/>
      <point x="271" y="289"/>
      <point x="265" y="321" type="curve" smooth="yes"/>
      <point x="258" y="354"/>
      <point x="250" y="389"/>
      <point x="248" y="404" type="curve"/>
      <point x="240" y="449"/>
      <point x="254" y="466"/>
      <point x="282" y="489" type="curve" smooth="yes"/>
      <point x="248" y="522"/>
      <point x="228" y="557"/>
      <point x="213" y="589" type="curve"/>
      <point x="156" y="505" type="line"/>
      <point x="174" y="454"/>
      <point x="190" y="395"/>
      <point x="201" y="343" type="curve" smooth="yes"/>
      <point x="210" y="302"/>
      <point x="219" y="256"/>
      <point x="229" y="194" type="curve"/>
      <point x="223" y="181"/>
      <point x="211" y="174"/>
      <point x="189" y="172" type="curve"/>
      <point x="178" y="160"/>
      <point x="170" y="144"/>
      <point x="158" y="114" type="curve"/>
      <point x="124" y="99"/>
      <point x="104" y="84"/>
      <point x="83" y="51" type="curve" smooth="yes"/>
      <point x="64" y="22"/>
      <point x="52" y="-18"/>
      <point x="60" y="-69" type="curve" smooth="yes"/>
      <point x="92" y="-272"/>
      <point x="99" y="-344"/>
      <point x="104" y="-390" type="curve"/>
      <point x="146" y="-375" type="line"/>
      <point x="145" y="-318"/>
      <point x="138" y="-230"/>
      <point x="128" y="-133" type="curve" smooth="yes"/>
      <point x="123" y="-80"/>
      <point x="119" y="-45"/>
      <point x="112" y="0" type="curve"/>
      <point x="125" y="13"/>
      <point x="157" y="33"/>
      <point x="215" y="34" type="curve"/>
      <point x="263" y="35"/>
      <point x="301" y="26"/>
      <point x="328" y="18" type="curve"/>
      <point x="353" y="52"/>
      <point x="365" y="91"/>
      <point x="374" y="115" type="curve" smooth="yes"/>
    </contour>
    <contour>
      <point x="211" y="0" type="move" name="caret_1"/>
    </contour>
    <contour>
      <point x="267" y="-31" type="move" name="bottom_1"/>
    </contour>
    <contour>
      <point x="128" y="588" type="move" name="top_1"/>
    </contour>
    <contour>
      <point x="62" y="195" type="move" name="top_2"/>
    </contour>
    <contour>
      <point x="127" y="-412" type="move" name="bottom_2"/>
    </contour>
  </outline>
</glyph>
<glyph name="uniFC49" format="1">
  <advance width="803"/>
  <unicode hex="FC49"/>
  <outline>
    <contour>
      <point x="723" y="270"/>
      <point x="701" y="280"/>
      <point x="672" y="289" type="curve" smooth="yes"/>
      <point x="649" y="295"/>
      <point x="631" y="297"/>
      <point x="615" y="303" type="curve"/>
      <point x="603" y="289"/>
      <point x="594" y="266"/>
      <point x="589" y="250" type="curve" smooth="yes"/>
      <point x="581" y="222"/>
      <point x="582" y="197"/>
      <point x="593" y="175" type="curve"/>
      <point x="572" y="166"/>
      <point x="539" y="150"/>
      <point x="510" y="128" type="curve" smooth="yes"/>
      <point x="482" y="107"/>
      <point x="457" y="75"/>
      <point x="449" y="48" type="curve" smooth="yes"/>
      <point x="445" y="34"/>
      <point x="442" y="15"/>
      <point x="438" y="-10" type="curve"/>
      <point x="505" y="-17"/>
      <point x="542" y="-41"/>
      <point x="543" y="-61" type="curve"/>
      <point x="543" y="-82"/>
      <point x="498" y="-107"/>
      <point x="465" y="-121" type="curve" smooth="yes"/>
      <point x="431" y="-136"/>
      <point x="377" y="-155"/>
      <point x="294" y="-155" type="curve" smooth="yes"/>
      <point x="218" y="-155"/>
      <point x="168" y="-137"/>
      <point x="141" y="-103" type="curve" smooth="yes"/>
      <point x="115" y="-71"/>
      <point x="114" y="-11"/>
      <point x="126" y="42" type="curve"/>
      <point x="99" y="51" type="line"/>
      <point x="83" y="10"/>
      <point x="73" y="-35"/>
      <point x="68" y="-72" type="curve" smooth="yes"/>
      <point x="64" y="-110"/>
      <point x="67" y="-141"/>
      <point x="80" y="-171" type="curve" smooth="yes"/>
      <point x="95" y="-207"/>
      <point x="120" y="-234"/>
      <point x="158" y="-253" type="curve" smooth="yes"/>
      <point x="194" y="-272"/>
      <point x="236" y="-281"/>
      <point x="284" y="-281" type="curve" smooth="yes"/>
      <point x="347" y="-281"/>
      <point x="413" y="-266"/>
      <point x="467" y="-237" type="curve" smooth="yes"/>
      <point x="506" y="-216"/>
      <point x="546" y="-186"/>
      <point x="570" y="-152" type="curve" smooth="yes"/>
      <point x="591" y="-124"/>
      <point x="604" y="-91"/>
      <point x="604" y="-59" type="curve" smooth="yes"/>
      <point x="604" y="0"/>
      <point x="560" y="30"/>
      <point x="516" y="41" type="curve"/>
      <point x="546" y="69"/>
      <point x="612" y="112"/>
      <point x="686" y="118" type="curve"/>
      <point x="721" y="119"/>
      <point x="736" y="135"/>
      <point x="742" y="176" type="curve" smooth="yes"/>
      <point x="748" y="219"/>
      <point x="748" y="242"/>
      <point x="734" y="257" type="curve" smooth="yes"/>
    </contour>
    <contour>
      <point x="403" y="0" type="move" name="caret_1"/>
    </contour>
    <contour>
      <point x="638" y="-200" type="move" name="bottom_1"/>
    </contour>
    <contour>
      <point x="615" y="333" type="move" name="top_1"/>
    </contour>
    <contour>
      <point x="263" y="48" type="move" name="top_2"/>
    </contour>
    <contour>
      <point x="288" y="-311" type="move" name="bottom_2"/>
    </contour>
  </outline>
</glyph>
<glyph name="uniFC53" format="1">
  <advance width="906"/>
  <unicode hex="FC53"/>
  <outline>
    <contour>
      <point x="849" y="235"/>
      <point x="835" y="270"/>
      <point x="812" y="300" type="curve" smooth="yes"/>
      <point x="789" y="330"/>
      <point x="760" y="353"/>
      <point x="721" y="377" type="curve" smooth="yes"/>
      <point x="701" y="389"/>
      <point x="681" y="400"/>
      <point x="660" y="410" type="curve" smooth="yes"/>
      <point x="638" y="421"/>
      <point x="625" y="428"/>
      <point x="609" y="438" type="curve"/>
      <point x="601" y="426"/>
      <point x="593" y="413"/>
      <point x="586" y="401" type="curve" smooth="yes"/>
      <point x="573" y="377"/>
      <point x="579" y="363"/>
      <point x="598" y="352" type="curve" smooth="yes"/>
      <point x="613" y="344" type="line"/>
      <point x="584" y="339"/>
      <point x="553" y="318"/>
      <point x="537" y="293" type="curve" smooth="yes"/>
      <point x="520" y="269"/>
      <point x="511" y="239"/>
      <point x="513" y="211" type="curve" smooth="yes"/>
      <point x="514" y="172"/>
      <point x="534" y="144"/>
      <point x="573" y="128" type="curve"/>
      <point x="556" y="113"/>
      <point x="532" y="104"/>
      <point x="510" y="94" type="curve" smooth="yes"/>
      <point x="493" y="86"/>
      <point x="473" y="79"/>
      <point x="453" y="71" type="curve" smooth="yes"/>
      <point x="432" y="60"/>
      <point x="432" y="37"/>
      <point x="424" y="-2" type="curve"/>
      <point x="436" y="-4"/>
      <point x="460" y="-12"/>
      <point x="480" y="-18" type="curve" smooth="yes"/>
      <point x="516" y="-30"/>
      <point x="538" y="-47"/>
      <point x="538" y="-64" type="curve" smooth="yes"/>
      <point x="538" y="-89"/>
      <point x="504" y="-109"/>
      <point x="456" y="-126" type="curve" smooth="yes"/>
      <point x="424" y="-139"/>
      <point x="362" y="-157"/>
      <point x="292" y="-157" type="curve" smooth="yes"/>
      <point x="226" y="-157"/>
      <point x="170" y="-141"/>
      <point x="140" y="-104" type="curve" smooth="yes"/>
      <point x="112" y="-71"/>
      <point x="113" y="-18"/>
      <point x="126" y="40" type="curve"/>
      <point x="99" y="50" type="line"/>
      <point x="86" y="19"/>
      <point x="72" y="-30"/>
      <point x="67" y="-75" type="curve" smooth="yes"/>
      <point x="64" y="-107"/>
      <point x="66" y="-141"/>
      <point x="80" y="-173" type="curve" smooth="yes"/>
      <point x="93" y="-206"/>
      <point x="118" y="-235"/>
      <point x="157" y="-255" type="curve" smooth="yes"/>
      <point x="191" y="-273"/>
      <point x="236" y="-283"/>
      <point x="284" y="-283" type="curve" smooth="yes"/>
      <point x="344" y="-283"/>
      <point x="412" y="-267"/>
      <point x="467" y="-239" type="curve" smooth="yes"/>
      <point x="519" y="-212"/>
      <point x="560" y="-174"/>
      <point x="582" y="-134" type="curve" smooth="yes"/>
      <point x="598" y="-104"/>
      <point x="604" y="-76"/>
      <point x="604" y="-55" type="curve"/>
      <point x="604" y="-8"/>
      <point x="583" y="15"/>
      <point x="547" y="31" type="curve"/>
      <point x="591" y="50"/>
      <point x="623" y="73"/>
      <point x="650" y="105" type="curve"/>
      <point x="680" y="96"/>
      <point x="718" y="82"/>
      <point x="763" y="56" type="curve"/>
      <point x="787" y="82"/>
      <point x="800" y="95"/>
      <point x="812" y="108" type="curve" smooth="yes"/>
      <point x="835" y="134"/>
      <point x="848" y="163"/>
      <point x="849" y="196" type="curve" smooth="yes"/>
    </contour>
    <contour>
      <point x="678" y="244"/>
      <point x="673" y="229"/>
      <point x="657" y="217" type="curve"/>
      <point x="644" y="209"/>
      <point x="631" y="206"/>
      <point x="622" y="206" type="curve" smooth="yes"/>
      <point x="616" y="206"/>
      <point x="604" y="207"/>
      <point x="584" y="219" type="curve"/>
      <point x="568" y="227"/>
      <point x="556" y="240"/>
      <point x="555" y="249" type="curve"/>
      <point x="556" y="256"/>
      <point x="566" y="270"/>
      <point x="586" y="289" type="curve"/>
      <point x="610" y="308"/>
      <point x="623" y="314"/>
      <point x="635" y="314" type="curve" smooth="yes"/>
      <point x="648" y="314"/>
      <point x="656" y="304"/>
      <point x="665" y="289" type="curve"/>
      <point x="673" y="274"/>
      <point x="678" y="257"/>
      <point x="678" y="251" type="curve" smooth="yes"/>
    </contour>
    <contour>
      <point x="753" y="170"/>
      <point x="725" y="176"/>
      <point x="691" y="185" type="curve"/>
      <point x="701" y="197"/>
      <point x="708" y="211"/>
      <point x="713" y="227" type="curve" smooth="yes"/>
      <point x="720" y="252"/>
      <point x="718" y="281"/>
      <point x="705" y="305" type="curve"/>
      <point x="738" y="284"/>
      <point x="759" y="262"/>
      <point x="774" y="236" type="curve" smooth="yes"/>
      <point x="786" y="214"/>
      <point x="792" y="188"/>
      <point x="793" y="159" type="curve"/>
    </contour>
    <contour>
      <point x="456" y="0" type="move" name="caret_1"/>
    </contour>
    <contour>
      <point x="733" y="-23" type="move" name="bottom_1"/>
    </contour>
    <contour>
      <point x="609" y="468" type="move" name="top_1"/>
    </contour>
    <contour>
      <point x="271" y="47" type="move" name="top_2"/>
    </contour>
    <contour>
      <point x="297" y="-313" type="move" name="bottom_2"/>
    </contour>
  </outline>
</glyph>
<glyph name="uniFC81" format="1">
  <advance width="896"/>
  <unicode hex="FC81"/>
  <outline>
    <contour>
      <point x="837" y="112" type="line" smooth="yes"/>
      <point x="776" y="112"/>
      <point x="746" y="150"/>
      <point x="721" y="184" type="curve" smooth="yes"/>
      <point x="697" y="216"/>
      <point x="665" y="255"/>
      <point x="635" y="288" type="curve" smooth="yes"/>
      <point x="615" y="311"/>
      <point x="580" y="347"/>
      <point x="557" y="371" type="curve"/>
      <point x="626" y="411"/>
      <point x="711" y="455"/>
      <point x="766" y="477" type="curve"/>
      <point x="776" y="513"/>
      <point x="781" y="545"/>
      <point x="786" y="581" type="curve"/>
      <point x="696" y="539"/>
      <point x="553" y="468"/>
      <point x="471" y="400" type="curve"/>
      <point x="452" y="587" type="line"/>
      <point x="431" y="568"/>
      <point x="408" y="539"/>
      <point x="380" y="498" type="curve"/>
      <point x="384" y="470"/>
      <point x="444" y="36"/>
      <point x="450" y="-21" type="curve" smooth="yes"/>
      <point x="456" y="-67"/>
      <point x="457" y="-103"/>
      <point x="417" y="-129" type="curve" smooth="yes"/>
      <point x="392" y="-147"/>
      <point x="352" y="-156"/>
      <point x="292" y="-156" type="curve" smooth="yes"/>
      <point x="258" y="-156"/>
      <point x="226" y="-151"/>
      <point x="201" y="-143" type="curve" smooth="yes"/>
      <point x="164" y="-131"/>
      <point x="143" y="-111"/>
      <point x="132" y="-86" type="curve" smooth="yes"/>
      <point x="117" y="-53"/>
      <point x="118" y="-14"/>
      <point x="127" y="30" type="curve"/>
      <point x="100" y="39" type="line"/>
      <point x="81" y="-8"/>
      <point x="71" y="-42"/>
      <point x="68" y="-82" type="curve" smooth="yes"/>
      <point x="66" y="-110"/>
      <point x="66" y="-139"/>
      <point x="81" y="-173" type="curve" smooth="yes"/>
      <point x="95" y="-207"/>
      <point x="119" y="-235"/>
      <point x="156" y="-254" type="curve" smooth="yes"/>
      <point x="192" y="-274"/>
      <point x="238" y="-283"/>
      <point x="288" y="-283" type="curve" smooth="yes"/>
      <point x="360" y="-283"/>
      <point x="415" y="-262"/>
      <point x="453" y="-220" type="curve" smooth="yes"/>
      <point x="476" y="-195"/>
      <point x="493" y="-162"/>
      <point x="501" y="-126" type="curve" smooth="yes"/>
      <point x="507" y="-98"/>
      <point x="510" y="-65"/>
      <point x="508" y="-25" type="curve" smooth="yes"/>
      <point x="507" y="-2"/>
      <point x="508" y="-9"/>
      <point x="505" y="36" type="curve"/>
      <point x="516" y="13"/>
      <point x="542" y="0"/>
      <point x="589" y="0" type="curve" smooth="yes"/>
      <point x="655" y="0"/>
      <point x="691" y="47"/>
      <point x="692" y="100" type="curve"/>
      <point x="713" y="47"/>
      <point x="754" y="0"/>
      <point x="838" y="0" type="curve" smooth="yes"/>
      <point x="896" y="0" type="line"/>
      <point x="896" y="112" type="line"/>
    </contour>
    <contour>
      <point x="632" y="126"/>
      <point x="606" y="109"/>
      <point x="571" y="109" type="curve"/>
      <point x="543" y="109"/>
      <point x="526" y="116"/>
      <point x="514" y="130" type="curve" smooth="yes"/>
      <point x="504" y="142"/>
      <point x="498" y="161"/>
      <point x="496" y="185" type="curve" smooth="yes"/>
      <point x="492" y="217"/>
      <point x="487" y="260"/>
      <point x="478" y="343" type="curve"/>
      <point x="506" y="315"/>
      <point x="550" y="271"/>
      <point x="571" y="246" type="curve" smooth="yes"/>
      <point x="591" y="222"/>
      <point x="621" y="184"/>
      <point x="645" y="147" type="curve"/>
    </contour>
    <contour>
      <point x="440" y="0" type="move" name="caret_1"/>
    </contour>
    <contour>
      <point x="643" y="-26" type="move" name="bottom_1"/>
    </contour>
    <contour>
      <point x="657" y="581" type="move" name="top_1"/>
    </contour>
    <contour>
      <point x="338" y="570" type="move" name="top_2"/>
    </contour>
    <contour>
      <point x="288" y="-313" type="move" name="bottom_2"/>
    </contour>
  </outline>
</glyph>
<glyph name="uniFD0E" format="1">
  <advance width="756"/>
  <unicode hex="FD0E"/>
  <outline>
    <contour>
      <point x="637" y="260"/>
      <point x="622" y="239"/>
      <point x="608" y="216" type="curve"/>
      <point x="653" y="152" type="line"/>
      <point x="643" y="126"/>
      <point x="625" y="107"/>
      <point x="594" y="107" type="curve" smooth="yes"/>
      <point x="570" y="107"/>
      <point x="550" y="112"/>
      <point x="537" y="124" type="curve" smooth="yes"/>
      <point x="525" y="136"/>
      <point x="520" y="155"/>
      <point x="520" y="178" type="curve" smooth="yes"/>
      <point x="520" y="188"/>
      <point x="522" y="198"/>
      <point x="523" y="206" type="curve"/>
      <point x="491" y="192" type="line"/>
      <point x="490" y="183"/>
      <point x="489" y="174"/>
      <point x="487" y="164" type="curve"/>
      <point x="479" y="134"/>
      <point x="462" y="107"/>
      <point x="418" y="107" type="curve" smooth="yes"/>
      <point x="384" y="107"/>
      <point x="367" y="123"/>
      <point x="360" y="141" type="curve"/>
      <point x="356" y="147"/>
      <point x="354" y="156"/>
      <point x="352" y="163" type="curve"/>
      <point x="299" y="143"/>
      <point x="228" y="126"/>
      <point x="169" y="113" type="curve" smooth="yes"/>
      <point x="167" y="95"/>
      <point x="163" y="62"/>
      <point x="155" y="26" type="curve"/>
      <point x="165" y="28"/>
      <point x="178" y="30"/>
      <point x="185" y="32" type="curve"/>
      <point x="187" y="22"/>
      <point x="189" y="12"/>
      <point x="189" y="1" type="curve" smooth="yes"/>
      <point x="189" y="-43"/>
      <point x="162" y="-78"/>
      <point x="117" y="-111" type="curve" smooth="yes"/>
      <point x="75" y="-148"/>
      <point x="-1" y="-186"/>
      <point x="-80" y="-229" type="curve"/>
      <point x="-64" y="-252" type="line"/>
      <point x="-44" y="-246"/>
      <point x="-19" y="-243"/>
      <point x="-1" y="-243" type="curve" smooth="yes"/>
      <point x="20" y="-243"/>
      <point x="45" y="-247"/>
      <point x="66" y="-247" type="curve" smooth="yes"/>
      <point x="105" y="-247"/>
      <point x="129" y="-235"/>
      <point x="151" y="-216" type="curve" smooth="yes"/>
      <point x="174" y="-197"/>
      <point x="193" y="-170"/>
      <point x="208" y="-138" type="curve" smooth="yes"/>
      <point x="242" y="-67"/>
      <point x="245" y="4"/>
      <point x="242" y="44" type="curve"/>
      <point x="274" y="51"/>
      <point x="303" y="58"/>
      <point x="328" y="66" type="curve"/>
      <point x="338" y="31"/>
      <point x="359" y="1"/>
      <point x="409" y="1" type="curve" smooth="yes"/>
      <point x="466" y="1"/>
      <point x="494" y="40"/>
      <point x="501" y="67" type="curve"/>
      <point x="506" y="42"/>
      <point x="534" y="8"/>
      <point x="586" y="8" type="curve" smooth="yes"/>
      <point x="626" y="8"/>
      <point x="654" y="29"/>
      <point x="671" y="56" type="curve" smooth="yes"/>
      <point x="695" y="92"/>
      <point x="699" y="143"/>
      <point x="699" y="150" type="curve" smooth="yes"/>
      <point x="699" y="196"/>
      <point x="681" y="251"/>
      <point x="654" y="278" type="curve"/>
    </contour>
    <contour>
      <point x="397" y="0" type="move" name="caret_1"/>
    </contour>
    <contour>
      <point x="500" y="-26" type="move" name="bottom_1"/>
    </contour>
    <contour>
      <point x="500" y="255" type="move" name="top_1"/>
    </contour>
    <contour>
      <point x="32" y="-277" type="move" name="bottom_2"/>
    </contour>
    <contour>
      <point x="146" y="179" type="move" name="top_2"/>
    </contour>
    <contour>
      <point x="63" y="-48" type="move" name="center_2"/>
    </contour>
  </outline>
</glyph>
<glyph name="uniFD17" format="1">
  <advance width="1054"/>
  <unicode hex="FD17"/>
  <outline>
    <contour>
      <point x="1016" y="112" type="line" smooth="yes"/>
      <point x="989" y="112"/>
      <point x="972" y="118"/>
      <point x="960" y="131" type="curve"/>
      <point x="943" y="151"/>
      <point x="946" y="176"/>
      <point x="949" y="207" type="curve"/>
      <point x="917" y="192" type="line"/>
      <point x="916" y="174"/>
      <point x="913" y="154"/>
      <point x="904" y="138" type="curve" smooth="yes"/>
      <point x="895" y="120"/>
      <point x="880" y="108"/>
      <point x="855" y="108" type="curve" smooth="yes"/>
      <point x="815" y="108"/>
      <point x="803" y="136"/>
      <point x="802" y="168" type="curve" smooth="yes"/>
      <point x="801" y="182"/>
      <point x="802" y="195"/>
      <point x="804" y="207" type="curve"/>
      <point x="773" y="192" type="line"/>
      <point x="771" y="179"/>
      <point x="769" y="167"/>
      <point x="764" y="155" type="curve" smooth="yes"/>
      <point x="752" y="122"/>
      <point x="730" y="109"/>
      <point x="684" y="109" type="curve" smooth="yes"/>
      <point x="656" y="109"/>
      <point x="617" y="122"/>
      <point x="578" y="173" type="curve" smooth="yes"/>
      <point x="559" y="198"/>
      <point x="545" y="219"/>
      <point x="512" y="219" type="curve" smooth="yes"/>
      <point x="483" y="219"/>
      <point x="453" y="201"/>
      <point x="427" y="163" type="curve" smooth="yes"/>
      <point x="412" y="142"/>
      <point x="395" y="110"/>
      <point x="381" y="76" type="curve" smooth="yes"/>
      <point x="367" y="39"/>
      <point x="364" y="10"/>
      <point x="375" y="-12" type="curve" smooth="yes"/>
      <point x="383" y="-29"/>
      <point x="402" y="-45"/>
      <point x="440" y="-55" type="curve" smooth="yes"/>
      <point x="464" y="-62"/>
      <point x="497" y="-66"/>
      <point x="530" y="-69" type="curve"/>
      <point x="524" y="-96"/>
      <point x="489" y="-121"/>
      <point x="439" y="-137" type="curve" smooth="yes"/>
      <point x="395" y="-152"/>
      <point x="341" y="-157"/>
      <point x="302" y="-157" type="curve" smooth="yes"/>
      <point x="252" y="-157"/>
      <point x="190" y="-149"/>
      <point x="158" y="-115" type="curve" smooth="yes"/>
      <point x="128" y="-94"/>
      <point x="118" y="-62"/>
      <point x="118" y="-25" type="curve" smooth="yes"/>
      <point x="117" y="-1"/>
      <point x="121" y="18"/>
      <point x="126" y="40" type="curve"/>
      <point x="99" y="51" type="line"/>
      <point x="74" y="-5"/>
      <point x="65" y="-66"/>
      <point x="66" y="-109" type="curve" smooth="yes"/>
      <point x="67" y="-144"/>
      <point x="80" y="-193"/>
      <point x="117" y="-228" type="curve" smooth="yes"/>
      <point x="151" y="-260"/>
      <point x="207" y="-283"/>
      <point x="286" y="-283" type="curve" smooth="yes"/>
      <point x="375" y="-283"/>
      <point x="453" y="-256"/>
      <point x="508" y="-212" type="curve" smooth="yes"/>
      <point x="535" y="-191"/>
      <point x="558" y="-165"/>
      <point x="574" y="-136" type="curve" smooth="yes"/>
      <point x="589" y="-109"/>
      <point x="597" y="-82"/>
      <point x="597" y="-57" type="curve" smooth="yes"/>
      <point x="597" y="-17"/>
      <point x="575" y="7"/>
      <point x="533" y="12" type="curve" smooth="yes"/>
      <point x="501" y="15"/>
      <point x="488" y="16"/>
      <point x="462" y="22" type="curve" smooth="yes"/>
      <point x="447" y="26"/>
      <point x="434" y="38"/>
      <point x="436" y="58" type="curve" smooth="yes"/>
      <point x="437" y="76"/>
      <point x="458" y="115"/>
      <point x="498" y="115" type="curve" smooth="yes"/>
      <point x="528" y="115"/>
      <point x="552" y="98"/>
      <point x="570" y="76" type="curve" smooth="yes"/>
      <point x="587" y="57"/>
      <point x="601" y="39"/>
      <point x="622" y="24" type="curve" smooth="yes"/>
      <point x="640" y="11"/>
      <point x="661" y="3"/>
      <point x="690" y="3" type="curve" smooth="yes"/>
      <point x="743" y="3"/>
      <point x="771" y="32"/>
      <point x="781" y="64" type="curve"/>
      <point x="782" y="33"/>
      <point x="803" y="0"/>
      <point x="849" y="0" type="curve" smooth="yes"/>
      <point x="903" y="0"/>
      <point x="921" y="44"/>
      <point x="926" y="66" type="curve"/>
      <point x="931" y="27"/>
      <point x="962" y="0"/>
      <point x="1014" y="0" type="curve" smooth="yes"/>
      <point x="1054" y="0" type="line"/>
      <point x="1054" y="112" type="line"/>
    </contour>
    <contour>
      <point x="524" y="0" type="move" name="caret_1"/>
    </contour>
    <contour>
      <point x="775" y="-26" type="move" name="bottom_1"/>
    </contour>
    <contour>
      <point x="781" y="247" type="move" name="top_1"/>
    </contour>
    <contour>
      <point x="221" y="47" type="move" name="top_2"/>
    </contour>
    <contour>
      <point x="290" y="-313" type="move" name="bottom_2"/>
    </contour>
  </outline>
</glyph>
<glyph name="uniFD1B" format="1">
  <advance width="998"/>
  <unicode hex="FD1B"/>
  <outline>
    <contour>
      <point x="878" y="112" type="line" smooth="yes"/>
      <point x="833" y="112"/>
      <point x="796" y="122"/>
      <point x="785" y="147" type="curve"/>
      <point x="812" y="150"/>
      <point x="832" y="151"/>
      <point x="849" y="151" type="curve"/>
      <point x="865" y="180"/>
      <point x="872" y="194"/>
      <point x="886" y="229" type="curve"/>
      <point x="777" y="228"/>
      <point x="719" y="239"/>
      <point x="623" y="280" type="curve" smooth="yes"/>
      <point x="592" y="293"/>
      <point x="567" y="305"/>
      <point x="538" y="305" type="curve" smooth="yes"/>
      <point x="509" y="305"/>
      <point x="484" y="292"/>
      <point x="462" y="271" type="curve" smooth="yes"/>
      <point x="442" y="250"/>
      <point x="428" y="220"/>
      <point x="415" y="180" type="curve"/>
      <point x="437" y="162" type="line"/>
      <point x="449" y="181"/>
      <point x="468" y="214"/>
      <point x="502" y="216" type="curve"/>
      <point x="522" y="218"/>
      <point x="552" y="213"/>
      <point x="586" y="203" type="curve" smooth="yes"/>
      <point x="609" y="197"/>
      <point x="652" y="180"/>
      <point x="659" y="178" type="curve"/>
      <point x="617" y="168"/>
      <point x="572" y="154"/>
      <point x="533" y="137" type="curve" smooth="yes"/>
      <point x="499" y="121"/>
      <point x="470" y="104"/>
      <point x="451" y="88" type="curve"/>
      <point x="440" y="77"/>
      <point x="427" y="48"/>
      <point x="420" y="-1" type="curve"/>
      <point x="441" y="-4"/>
      <point x="455" y="-9"/>
      <point x="480" y="-17" type="curve"/>
      <point x="514" y="-29"/>
      <point x="537" y="-45"/>
      <point x="537" y="-64" type="curve" smooth="yes"/>
      <point x="537" y="-88"/>
      <point x="498" y="-111"/>
      <point x="460" y="-124" type="curve" smooth="yes"/>
      <point x="423" y="-138"/>
      <point x="361" y="-155"/>
      <point x="296" y="-155" type="curve" smooth="yes"/>
      <point x="223" y="-155"/>
      <point x="171" y="-139"/>
      <point x="141" y="-103" type="curve" smooth="yes"/>
      <point x="114" y="-69"/>
      <point x="116" y="-16"/>
      <point x="127" y="42" type="curve"/>
      <point x="100" y="51" type="line"/>
      <point x="83" y="10"/>
      <point x="71" y="-38"/>
      <point x="68" y="-78" type="curve" smooth="yes"/>
      <point x="65" y="-111"/>
      <point x="69" y="-142"/>
      <point x="81" y="-171" type="curve" smooth="yes"/>
      <point x="95" y="-207"/>
      <point x="121" y="-234"/>
      <point x="158" y="-253" type="curve" smooth="yes"/>
      <point x="192" y="-271"/>
      <point x="236" y="-281"/>
      <point x="287" y="-281" type="curve" smooth="yes"/>
      <point x="349" y="-281"/>
      <point x="415" y="-266"/>
      <point x="470" y="-236" type="curve" smooth="yes"/>
      <point x="520" y="-210"/>
      <point x="559" y="-174"/>
      <point x="580" y="-133" type="curve" smooth="yes"/>
      <point x="595" y="-105"/>
      <point x="603" y="-77"/>
      <point x="603" y="-53" type="curve"/>
      <point x="603" y="7"/>
      <point x="552" y="32"/>
      <point x="506" y="46" type="curve"/>
      <point x="514" y="50"/>
      <point x="565" y="81"/>
      <point x="625" y="101" type="curve" smooth="yes"/>
      <point x="671" y="117"/>
      <point x="710" y="128"/>
      <point x="741" y="133" type="curve"/>
      <point x="746" y="94"/>
      <point x="756" y="68"/>
      <point x="776" y="45" type="curve" smooth="yes"/>
      <point x="800" y="16"/>
      <point x="840" y="0"/>
      <point x="891" y="0" type="curve" smooth="yes"/>
      <point x="999" y="0" type="line"/>
      <point x="999" y="112" type="line"/>
    </contour>
    <contour>
      <point x="496" y="0" type="move" name="caret_1"/>
    </contour>
    <contour>
      <point x="735" y="-26" type="move" name="bottom_1"/>
    </contour>
    <contour>
      <point x="558" y="335" type="move" name="top_1"/>
    </contour>
    <contour>
      <point x="232" y="46" type="move" name="top_2"/>
    </contour>
    <contour>
      <point x="290" y="-311" type="move" name="bottom_2"/>
    </contour>
  </outline>
</glyph>
<glyph name="uniFEB4" format="1">
  <advance width="554"/>
  <unicode hex="FEB4"/>
  <outline>
    <contour>
      <point x="515" y="112" type="line" smooth="yes"/>
      <point x="488" y="112"/>
      <point x="471" y="118"/>
      <point x="459" y="131" type="curve" smooth="yes"/>
      <point x="442" y="151"/>
      <point x="445" y="176"/>
      <point x="448" y="207" type="curve"/>
      <point x="416" y="192" type="line"/>
      <point x="416" y="175"/>
      <point x="413" y="156"/>
      <point x="405" y="141" type="curve" smooth="yes"/>
      <point x="396" y="121"/>
      <point x="380" y="108"/>
      <point x="354" y="108" type="curve" smooth="yes"/>
      <point x="314" y="108"/>
      <point x="303" y="137"/>
      <point x="301" y="166" type="curve" smooth="yes"/>
      <point x="300" y="180"/>
      <point x="301" y="194"/>
      <point x="304" y="207" type="curve"/>
      <point x="272" y="192" type="line"/>
      <point x="271" y="172"/>
      <point x="266" y="150"/>
      <point x="254" y="134" type="curve" smooth="yes"/>
      <point x="243" y="118"/>
      <point x="225" y="108"/>
      <point x="198" y="108" type="curve" smooth="yes"/>
      <point x="150" y="108"/>
      <point x="137" y="134"/>
      <point x="134" y="161" type="curve" smooth="yes"/>
      <point x="132" y="177"/>
      <point x="134" y="194"/>
      <point x="136" y="207" type="curve"/>
      <point x="104" y="192" type="line"/>
      <point x="101" y="174"/>
      <point x="100" y="161"/>
      <point x="89" y="144" type="curve" smooth="yes"/>
      <point x="75" y="123"/>
      <point x="55" y="112"/>
      <point x="28" y="112" type="curve" smooth="yes"/>
      <point x="-17" y="112" type="line" smooth="yes"/>
      <point x="-48" y="112"/>
      <point x="-74" y="86"/>
      <point x="-74" y="55" type="curve" smooth="yes"/>
      <point x="-74" y="22"/>
      <point x="-46" y="0"/>
      <point x="-17" y="0" type="curve" smooth="yes"/>
      <point x="21" y="0" type="line" smooth="yes"/>
      <point x="79" y="0"/>
      <point x="103" y="35"/>
      <point x="110" y="65" type="curve"/>
      <point x="112" y="36"/>
      <point x="135" y="-2"/>
      <point x="189" y="-2" type="curve" smooth="yes"/>
      <point x="243" y="-2"/>
      <point x="270" y="36"/>
      <point x="279" y="66" type="curve"/>
      <point x="280" y="34"/>
      <point x="302" y="-2"/>
      <point x="346" y="-2" type="curve" smooth="yes"/>
      <point x="404" y="-2"/>
      <point x="420" y="45"/>
      <point x="425" y="66" type="curve"/>
      <point x="431" y="27"/>
      <point x="462" y="0"/>
      <point x="513" y="0" type="curve" smooth="yes"/>
      <point x="553" y="0" type="line"/>
      <point x="553" y="112" type="line"/>
    </contour>
    <contour>
      <point x="283" y="243" type="move" name="top"/>
    </contour>
    <contour>
      <point x="277" y="-26" type="move" name="bottom"/>
    </contour>
  </outline>
</glyph>
<glyph name="uniFEBA" format="1">
  <advance width="1085"/>
  <unicode hex="FEBA"/>
  <outline>
    <contour>
      <point x="974" y="112" type="line" smooth="yes"/>
      <point x="935" y="112"/>
      <point x="891" y="98"/>
      <point x="875" y="93" type="curve"/>
      <point x="896" y="111"/>
      <point x="910" y="126"/>
      <point x="924" y="148" type="curve" smooth="yes"/>
      <point x="941" y="176"/>
      <point x="951" y="208"/>
      <point x="951" y="236" type="curve" smooth="yes"/>
      <point x="951" y="255"/>
      <point x="942" y="282"/>
      <point x="911" y="306" type="curve" smooth="yes"/>
      <point x="890" y="323"/>
      <point x="861" y="335"/>
      <point x="838" y="335" type="curve" smooth="yes"/>
      <point x="769" y="335"/>
      <point x="696" y="264"/>
      <point x="663" y="229" type="curve" smooth="yes"/>
      <point x="627" y="191"/>
      <point x="597" y="148"/>
      <point x="573" y="112" type="curve"/>
      <point x="527" y="116"/>
      <point x="496" y="140"/>
      <point x="466" y="177" type="curve"/>
      <point x="444" y="152"/>
      <point x="425" y="126"/>
      <point x="410" y="96" type="curve"/>
      <point x="439" y="58"/>
      <point x="490" y="-15"/>
      <point x="490" y="-57" type="curve" smooth="yes"/>
      <point x="490" y="-88"/>
      <point x="464" y="-114"/>
      <point x="421" y="-133" type="curve" smooth="yes"/>
      <point x="388" y="-148"/>
      <point x="345" y="-158"/>
      <point x="295" y="-158" type="curve" smooth="yes"/>
      <point x="223" y="-158"/>
      <point x="168" y="-138"/>
      <point x="140" y="-104" type="curve" smooth="yes"/>
      <point x="114" y="-71"/>
      <point x="115" y="-27"/>
      <point x="126" y="29" type="curve"/>
      <point x="99" y="38" type="line"/>
      <point x="80" y="-4"/>
      <point x="69" y="-50"/>
      <point x="67" y="-83" type="curve" smooth="yes"/>
      <point x="65" y="-113"/>
      <point x="68" y="-145"/>
      <point x="80" y="-174" type="curve" smooth="yes"/>
      <point x="95" y="-211"/>
      <point x="123" y="-238"/>
      <point x="158" y="-256" type="curve" smooth="yes"/>
      <point x="191" y="-273"/>
      <point x="236" y="-285"/>
      <point x="288" y="-285" type="curve" smooth="yes"/>
      <point x="373" y="-285"/>
      <point x="427" y="-260"/>
      <point x="466" y="-227" type="curve" smooth="yes"/>
      <point x="528" y="-175"/>
      <point x="545" y="-101"/>
      <point x="545" y="-55" type="curve" smooth="yes"/>
      <point x="545" y="-32"/>
      <point x="541" y="0"/>
      <point x="537" y="25" type="curve"/>
      <point x="547" y="20"/>
      <point x="563" y="13"/>
      <point x="579" y="9" type="curve" smooth="yes"/>
      <point x="604" y="3"/>
      <point x="657" y="4"/>
      <point x="671" y="4" type="curve" smooth="yes"/>
      <point x="685" y="4"/>
      <point x="847" y="2"/>
      <point x="889" y="1" type="curve" smooth="yes"/>
      <point x="917" y="1"/>
      <point x="938" y="0"/>
      <point x="968" y="0" type="curve" smooth="yes"/>
      <point x="1085" y="0" type="line"/>
      <point x="1085" y="112" type="line"/>
    </contour>
    <contour>
      <point x="868" y="155"/>
      <point x="856" y="143"/>
      <point x="820" y="129" type="curve" smooth="yes"/>
      <point x="795" y="118"/>
      <point x="766" y="112"/>
      <point x="728" y="112" type="curve" smooth="yes"/>
      <point x="622" y="112" type="line"/>
      <point x="642" y="140"/>
      <point x="661" y="165"/>
      <point x="684" y="186" type="curve" smooth="yes"/>
      <point x="712" y="215"/>
      <point x="743" y="247"/>
      <point x="797" y="247" type="curve" smooth="yes"/>
      <point x="824" y="247"/>
      <point x="849" y="231"/>
      <point x="862" y="217" type="curve" smooth="yes"/>
      <point x="874" y="204"/>
      <point x="881" y="190"/>
      <point x="885" y="174" type="curve"/>
    </contour>
    <contour>
      <point x="700" y="-96" type="move" name="center"/>
    </contour>
    <contour>
      <point x="292" y="-315" type="move" name="bottom"/>
    </contour>
    <contour>
      <point x="819" y="365" type="move" name="top"/>
    </contour>
  </outline>
</glyph>
<glyph name="uniFECB" format="1">
  <advance width="397"/>
  <unicode hex="FECB"/>
  <outline>
    <contour>
      <point x="329" y="150"/>
      <point x="314" y="145"/>
      <point x="298" y="140" type="curve" smooth="yes"/>
      <point x="255" y="126"/>
      <point x="187" y="112"/>
      <point x="168" y="112" type="curve"/>
      <point x="120" y="132"/>
      <point x="88" y="190"/>
      <point x="81" y="225" type="curve"/>
      <point x="105" y="243"/>
      <point x="139" y="257"/>
      <point x="186" y="257" type="curve" smooth="yes"/>
      <point x="226" y="257"/>
      <point x="256" y="247"/>
      <point x="275" y="238" type="curve"/>
      <point x="302" y="262" type="line"/>
      <point x="284" y="287"/>
      <point x="235" y="336"/>
      <point x="176" y="336" type="curve" smooth="yes"/>
      <point x="142" y="336"/>
      <point x="101" y="314"/>
      <point x="72" y="287" type="curve" smooth="yes"/>
      <point x="39" y="258"/>
      <point x="17" y="218"/>
      <point x="17" y="180" type="curve" smooth="yes"/>
      <point x="17" y="155"/>
      <point x="30" y="128"/>
      <point x="51" y="112" type="curve"/>
      <point x="-17" y="112" type="line" smooth="yes"/>
      <point x="-50" y="112"/>
      <point x="-74" y="88"/>
      <point x="-74" y="57" type="curve" smooth="yes"/>
      <point x="-74" y="25"/>
      <point x="-49" y="0"/>
      <point x="-17" y="0" type="curve" smooth="yes"/>
      <point x="69" y="0" type="line" smooth="yes"/>
      <point x="160" y="0"/>
      <point x="226" y="26"/>
      <point x="270" y="44" type="curve" smooth="yes"/>
      <point x="284" y="50"/>
      <point x="284" y="50"/>
      <point x="303" y="57" type="curve"/>
      <point x="321" y="91"/>
      <point x="330" y="116"/>
      <point x="340" y="154" type="curve"/>
    </contour>
    <contour>
      <point x="176" y="366" type="move" name="top"/>
    </contour>
    <contour>
      <point x="122" y="-26" type="move" name="bottom"/>
    </contour>
  </outline>
</glyph>
<glyph name="uniFEEE" format="1">
  <advance width="422"/>
  <unicode hex="FEEE"/>
  <outline>
    <contour>
      <point x="302" y="112" type="line"/>
      <point x="300" y="145"/>
      <point x="291" y="182"/>
      <point x="277" y="212" type="curve" smooth="yes"/>
      <point x="259" y="249"/>
      <point x="232" y="277"/>
      <point x="194" y="277" type="curve" smooth="yes"/>
      <point x="157" y="277"/>
      <point x="128" y="247"/>
      <point x="111" y="209" type="curve" smooth="yes"/>
      <point x="98" y="180"/>
      <point x="92" y="153"/>
      <point x="92" y="119" type="curve" smooth="yes"/>
      <point x="92" y="97"/>
      <point x="96" y="58"/>
      <point x="118" y="32" type="curve" smooth="yes"/>
      <point x="136" y="10"/>
      <point x="165" y="0"/>
      <point x="206" y="0" type="curve" smooth="yes"/>
      <point x="254" y="0" type="line"/>
      <point x="253" y="-12"/>
      <point x="250" y="-28"/>
      <point x="245" y="-41" type="curve" smooth="yes"/>
      <point x="231" y="-83"/>
      <point x="201" y="-124"/>
      <point x="163" y="-154" type="curve" smooth="yes"/>
      <point x="137" y="-173"/>
      <point x="105" y="-193"/>
      <point x="81" y="-206" type="curve" smooth="yes"/>
      <point x="54" y="-222"/>
      <point x="-12" y="-256"/>
      <point x="-20" y="-261" type="curve"/>
      <point x="-4" y="-284" type="line"/>
      <point x="17" y="-278"/>
      <point x="43" y="-275"/>
      <point x="63" y="-275" type="curve" smooth="yes"/>
      <point x="82" y="-275"/>
      <point x="108" y="-278"/>
      <point x="124" y="-278" type="curve" smooth="yes"/>
      <point x="152" y="-278"/>
      <point x="179" y="-272"/>
      <point x="204" y="-256" type="curve" smooth="yes"/>
      <point x="228" y="-240"/>
      <point x="250" y="-214"/>
      <point x="267" y="-176" type="curve" smooth="yes"/>
      <point x="296" y="-118"/>
      <point x="304" y="-43"/>
      <point x="305" y="0" type="curve"/>
      <point x="422" y="0" type="line"/>
      <point x="422" y="112" type="line"/>
    </contour>
    <contour>
      <point x="247" y="142"/>
      <point x="249" y="123"/>
      <point x="250" y="111" type="curve"/>
      <point x="195" y="111" type="line" smooth="yes"/>
      <point x="156" y="111"/>
      <point x="131" y="119"/>
      <point x="131" y="154" type="curve" smooth="yes"/>
      <point x="131" y="174"/>
      <point x="151" y="198"/>
      <point x="183" y="198" type="curve" smooth="yes"/>
      <point x="208" y="198"/>
      <point x="226" y="183"/>
      <point x="236" y="164" type="curve" smooth="yes"/>
    </contour>
    <contour>
      <point x="107" y="-73" type="move" name="center"/>
    </contour>
    <contour>
      <point x="108" y="-315" type="move" name="bottom"/>
    </contour>
    <contour>
      <point x="187" y="307" type="move" name="top"/>
    </contour>
  </outline>
</glyph>
<glyph name="TahSmallTwoDotsbelowar" format="1">
  <advance width="0"/>
  <outline>
    <contour>
      <point x="34" y="-412"/>
      <point x="15" y="-431"/>
      <point x="0" y="-447" type="curve"/>
      <point x="-14" y="-430"/>
      <point x="-32" y="-411"/>
      <point x="-51" y="-400" type="curve"/>
      <point x="-63" y="-414"/>
      <point x="-90" y="-442"/>
      <point x="-107" y="-457" type="curve"/>
      <point x="-84" y="-475"/>
      <point x="-65" y="-495"/>
      <point x="-46" y="-516" type="curve"/>
      <point x="-28" y="-500"/>
      <point x="-10" y="-482"/>
      <point x="2" y="-468" type="curve"/>
      <point x="19" y="-483"/>
      <point x="35" y="-499"/>
      <point x="48" y="-516" type="curve"/>
      <point x="72" y="-496"/>
      <point x="92" y="-475"/>
      <point x="104" y="-460" type="curve"/>
      <point x="92" y="-440"/>
      <point x="68" y="-415"/>
      <point x="44" y="-400" type="curve"/>
    </contour>
    <contour>
      <point x="-50" y="-228" type="line"/>
      <point x="-44" y="-240"/>
      <point x="-30" y="-279"/>
      <point x="-27" y="-327" type="curve"/>
      <point x="-36" y="-343" type="line"/>
      <point x="-66" y="-343" type="line"/>
      <point x="-55" y="-382" type="line"/>
      <point x="-12" y="-382" type="line"/>
      <point x="9" y="-382"/>
      <point x="32" y="-373"/>
      <point x="51" y="-360" type="curve" smooth="yes"/>
      <point x="70" y="-345"/>
      <point x="81" y="-326"/>
      <point x="81" y="-307" type="curve" smooth="yes"/>
      <point x="81" y="-289"/>
      <point x="58" y="-274"/>
      <point x="42" y="-274" type="curve" smooth="yes"/>
      <point x="28" y="-274"/>
      <point x="7" y="-284"/>
      <point x="-13" y="-313" type="curve"/>
      <point x="-11" y="-294"/>
      <point x="-12" y="-283"/>
      <point x="-17" y="-259" type="curve"/>
      <point x="-19" y="-241"/>
      <point x="-15" y="-238"/>
      <point x="-6" y="-232" type="curve"/>
      <point x="-16" y="-221"/>
      <point x="-24" y="-211"/>
      <point x="-29" y="-200" type="curve"/>
    </contour>
    <contour>
      <point x="52" y="-335"/>
      <point x="32" y="-345"/>
      <point x="10" y="-345" type="curve" smooth="yes"/>
      <point x="-16" y="-345" type="line"/>
      <point x="-7" y="-326"/>
      <point x="8" y="-305"/>
      <point x="28" y="-304" type="curve" smooth="yes"/>
      <point x="47" y="-304"/>
      <point x="55" y="-315"/>
      <point x="60" y="-324" type="curve"/>
    </contour>
    <contour>
      <point x="-2" y="-180" type="move" name="_bottom"/>
    </contour>
    <contour>
      <point x="-2" y="-521" type="move" name="bottom"/>
    </contour>
  </outline>
</glyph>
<glyph name="threedotsdowncenterar" format="1">
  <advance width="0"/>
  <outline>
    <contour>
      <point x="91" y="383"/>
      <point x="67" y="408"/>
      <point x="43" y="422" type="curve"/>
      <point x="33" y="412"/>
      <point x="14" y="391"/>
      <point x="-1" y="377" type="curve"/>
      <point x="-15" y="394"/>
      <point x="-33" y="412"/>
      <point x="-52" y="422" type="curve"/>
      <point x="-64" y="408"/>
      <point x="-91" y="381"/>
      <point x="-108" y="366" type="curve"/>
      <point x="-85" y="349"/>
      <point x="-66" y="328"/>
      <point x="-47" y="307" type="curve"/>
      <point x="-29" y="324"/>
      <point x="-11" y="341"/>
      <point x="1" y="355" type="curve"/>
      <point x="18" y="340"/>
      <point x="33" y="324"/>
      <point x="47" y="307" type="curve"/>
      <point x="71" y="327"/>
      <point x="91" y="349"/>
      <point x="103" y="363" type="curve"/>
    </contour>
    <contour>
      <point x="48" y="268"/>
      <point x="24" y="293"/>
      <point x="0" y="308" type="curve"/>
      <point x="-12" y="294"/>
      <point x="-39" y="267"/>
      <point x="-56" y="251" type="curve"/>
      <point x="-34" y="233"/>
      <point x="-14" y="214"/>
      <point x="4" y="192" type="curve"/>
      <point x="28" y="212"/>
      <point x="48" y="234"/>
      <point x="60" y="248" type="curve"/>
    </contour>
    <contour>
      <point x="-3" y="331" type="move" name="_center"/>
    </contour>
  </outline>
</glyph>
<glyph name="uni0644062D0649" format="1">
  <advance width="945"/>
  <outline>
    <contour>
      <point x="867" y="234" type="line" smooth="yes"/>
      <point x="782" y="235"/>
      <point x="748" y="243"/>
      <point x="703" y="257" type="curve" smooth="yes"/>
      <point x="693" y="260"/>
      <point x="671" y="268"/>
      <point x="648" y="274" type="curve"/>
      <point x="648" y="274"/>
      <point x="673" y="286"/>
      <point x="669" y="337" type="curve" smooth="yes"/>
      <point x="668" y="352"/>
      <point x="664" y="381"/>
      <point x="662" y="396" type="curve" smooth="yes"/>
      <point x="654" y="455"/>
      <point x="659" y="474"/>
      <point x="683" y="493" type="curve"/>
      <point x="655" y="519"/>
      <point x="636" y="549"/>
      <point x="621" y="580" type="curve"/>
      <point x="562" y="498" type="line"/>
      <point x="564" y="491"/>
      <point x="586" y="428"/>
      <point x="599" y="369" type="curve" smooth="yes"/>
      <point x="609" y="324"/>
      <point x="609" y="309"/>
      <point x="602" y="301" type="curve" smooth="yes"/>
      <point x="592" y="289"/>
      <point x="572" y="288"/>
      <point x="544" y="287" type="curve" smooth="yes"/>
      <point x="489" y="284"/>
      <point x="470" y="282"/>
      <point x="450" y="272" type="curve" smooth="yes"/>
      <point x="447" y="265"/>
      <point x="438" y="236"/>
      <point x="428" y="202" type="curve"/>
      <point x="457" y="209"/>
      <point x="473" y="212"/>
      <point x="504" y="212" type="curve" smooth="yes"/>
      <point x="553" y="212"/>
      <point x="612" y="205"/>
      <point x="667" y="178" type="curve"/>
      <point x="624" y="166"/>
      <point x="582" y="151"/>
      <point x="553" y="138" type="curve" smooth="yes"/>
      <point x="519" y="123"/>
      <point x="466" y="93"/>
      <point x="451" y="80" type="curve"/>
      <point x="440" y="70"/>
      <point x="427" y="48"/>
      <point x="420" y="-1" type="curve"/>
      <point x="441" y="-4"/>
      <point x="455" y="-9"/>
      <point x="480" y="-17" type="curve"/>
      <point x="514" y="-29"/>
      <point x="537" y="-45"/>
      <point x="537" y="-64" type="curve" smooth="yes"/>
      <point x="537" y="-89"/>
      <point x="496" y="-112"/>
      <point x="456" y="-126" type="curve" smooth="yes"/>
      <point x="420" y="-139"/>
      <point x="361" y="-155"/>
      <point x="296" y="-155" type="curve" smooth="yes"/>
      <point x="223" y="-155"/>
      <point x="171" y="-139"/>
      <point x="141" y="-103" type="curve" smooth="yes"/>
      <point x="114" y="-69"/>
      <point x="116" y="-26"/>
      <point x="127" y="32" type="curve"/>
      <point x="100" y="41" type="line"/>
      <point x="83" y="0"/>
      <point x="71" y="-38"/>
      <point x="68" y="-78" type="curve" smooth="yes"/>
      <point x="65" y="-111"/>
      <point x="69" y="-142"/>
      <point x="81" y="-171" type="curve" smooth="yes"/>
      <point x="95" y="-207"/>
      <point x="121" y="-234"/>
      <point x="158" y="-253" type="curve" smooth="yes"/>
      <point x="192" y="-271"/>
      <point x="236" y="-281"/>
      <point x="287" y="-281" type="curve" smooth="yes"/>
      <point x="347" y="-281"/>
      <point x="408" y="-267"/>
      <point x="460" y="-242" type="curve" smooth="yes"/>
      <point x="515" y="-215"/>
      <point x="557" y="-177"/>
      <point x="580" y="-133" type="curve" smooth="yes"/>
      <point x="595" y="-105"/>
      <point x="603" y="-77"/>
      <point x="603" y="-53" type="curve"/>
      <point x="603" y="7"/>
      <point x="552" y="32"/>
      <point x="506" y="46" type="curve"/>
      <point x="514" y="50"/>
      <point x="564" y="83"/>
      <point x="624" y="103" type="curve" smooth="yes"/>
      <point x="698" y="126"/>
      <point x="736" y="138"/>
      <point x="842" y="136" type="curve"/>
      <point x="859" y="165"/>
      <point x="878" y="204"/>
      <point x="888" y="234" type="curve"/>
    </contour>
    <contour>
      <point x="612" y="-246" type="move" name="bottom_1"/>
    </contour>
    <contour>
      <point x="430" y="339" type="move" name="top_2"/>
    </contour>
    <contour>
      <point x="631" y="0" type="move" name="caret_2"/>
    </contour>
    <contour>
      <point x="317" y="0" type="move" name="caret_1"/>
    </contour>
    <contour>
      <point x="290" y="-311" type="move" name="bottom_3"/>
    </contour>
    <contour>
      <point x="533" y="590" type="move" name="top_1"/>
    </contour>
    <contour>
      <point x="756" y="69" type="move" name="bottom_2"/>
    </contour>
    <contour>
      <point x="249" y="50" type="move" name="top_3"/>
    </contour>
  </outline>
</glyph>
<glyph name="uni0664.above" format="1">
  <advance width="0"/>
  <outline>
    <contour>
      <point x="80" y="799"/>
      <point x="82" y="813"/>
      <point x="83" y="824" type="curve"/>
      <point x="65" y="824"/>
      <point x="42" y="817"/>
      <point x="31" y="787" type="curve"/>
      <point x="27" y="795"/>
      <point x="16" y="824"/>
      <point x="-19" y="824" type="curve" smooth="yes"/>
      <point x="-50" y="824"/>
      <point x="-71" y="791"/>
      <point x="-78" y="766" type="curve" smooth="yes"/>
      <point x="-85" y="738"/>
      <point x="-76" y="707"/>
      <point x="-65" y="687" type="curve" smooth="yes"/>
      <point x="-52" y="662"/>
      <point x="-32" y="630"/>
      <point x="-34" y="583" type="curve"/>
      <point x="-16" y="583" type="line"/>
      <point x="-5" y="621"/>
      <point x="-17" y="659"/>
      <point x="-29" y="686" type="curve" smooth="yes"/>
      <point x="-40" y="713"/>
      <point x="-52" y="741"/>
      <point x="-45" y="765" type="curve" smooth="yes"/>
      <point x="-42" y="777"/>
      <point x="-32" y="788"/>
      <point x="-18" y="788" type="curve" smooth="yes"/>
      <point x="-8" y="788"/>
      <point x="1" y="784"/>
      <point x="7" y="777" type="curve" smooth="yes"/>
      <point x="17" y="766"/>
      <point x="20" y="754"/>
      <point x="21" y="741" type="curve"/>
      <point x="35" y="747" type="line"/>
      <point x="36" y="763"/>
      <point x="44" y="786"/>
      <point x="78" y="789" type="curve"/>
    </contour>
    <contour>
      <point x="2" y="822" type="move" name="top"/>
    </contour>
    <contour>
      <point x="2" y="561" type="move" name="_top"/>
    </contour>
  </outline>
</glyph>
<glyph name="uni066E062D0649" format="1">
  <advance width="952"/>
  <outline>
    <contour>
      <point x="876" y="244"/>
      <point x="859" y="243"/>
      <point x="837" y="242" type="curve"/>
      <point x="781" y="242"/>
      <point x="736" y="252"/>
      <point x="692" y="261" type="curve" smooth="yes"/>
      <point x="647" y="270"/>
      <point x="603" y="279"/>
      <point x="552" y="279" type="curve"/>
      <point x="572" y="287"/>
      <point x="653" y="306"/>
      <point x="692" y="364" type="curve" smooth="yes"/>
      <point x="703" y="380"/>
      <point x="718" y="408"/>
      <point x="744" y="408" type="curve" smooth="yes"/>
      <point x="772" y="408"/>
      <point x="777" y="384"/>
      <point x="766" y="342" type="curve"/>
      <point x="788" y="342" type="line"/>
      <point x="800" y="361"/>
      <point x="808" y="384"/>
      <point x="811" y="403" type="curve" smooth="yes"/>
      <point x="816" y="437"/>
      <point x="809" y="499"/>
      <point x="755" y="499" type="curve" smooth="yes"/>
      <point x="715" y="499"/>
      <point x="690" y="468"/>
      <point x="654" y="430" type="curve" smooth="yes"/>
      <point x="594" y="367"/>
      <point x="559" y="342"/>
      <point x="500" y="319" type="curve" smooth="yes"/>
      <point x="466" y="306"/>
      <point x="441" y="296"/>
      <point x="423" y="268" type="curve" smooth="yes"/>
      <point x="412" y="251"/>
      <point x="403" y="229"/>
      <point x="402" y="204" type="curve"/>
      <point x="423" y="194" type="line"/>
      <point x="432" y="208"/>
      <point x="445" y="222"/>
      <point x="482" y="220" type="curve" smooth="yes"/>
      <point x="525" y="218"/>
      <point x="587" y="200"/>
      <point x="656" y="176" type="curve"/>
      <point x="615" y="164"/>
      <point x="579" y="150"/>
      <point x="551" y="138" type="curve" smooth="yes"/>
      <point x="505" y="118"/>
      <point x="466" y="93"/>
      <point x="451" y="80" type="curve"/>
      <point x="440" y="70"/>
      <point x="427" y="48"/>
      <point x="420" y="-1" type="curve"/>
      <point x="441" y="-4"/>
      <point x="455" y="-9"/>
      <point x="480" y="-17" type="curve"/>
      <point x="514" y="-29"/>
      <point x="537" y="-45"/>
      <point x="537" y="-64" type="curve" smooth="yes"/>
      <point x="537" y="-88"/>
      <point x="495" y="-113"/>
      <point x="452" y="-126" type="curve" smooth="yes"/>
      <point x="418" y="-139"/>
      <point x="361" y="-155"/>
      <point x="296" y="-155" type="curve" smooth="yes"/>
      <point x="223" y="-155"/>
      <point x="171" y="-139"/>
      <point x="141" y="-103" type="curve" smooth="yes"/>
      <point x="114" y="-69"/>
      <point x="116" y="-26"/>
      <point x="127" y="32" type="curve"/>
      <point x="100" y="41" type="line"/>
      <point x="83" y="0"/>
      <point x="71" y="-38"/>
      <point x="68" y="-78" type="curve" smooth="yes"/>
      <point x="65" y="-111"/>
      <point x="69" y="-142"/>
      <point x="81" y="-171" type="curve" smooth="yes"/>
      <point x="95" y="-207"/>
      <point x="121" y="-234"/>
      <point x="158" y="-253" type="curve" smooth="yes"/>
      <point x="192" y="-271"/>
      <point x="236" y="-281"/>
      <point x="287" y="-281" type="curve" smooth="yes"/>
      <point x="345" y="-281"/>
      <point x="406" y="-267"/>
      <point x="460" y="-241" type="curve" smooth="yes"/>
      <point x="514" y="-214"/>
      <point x="557" y="-177"/>
      <point x="580" y="-133" type="curve" smooth="yes"/>
      <point x="595" y="-105"/>
      <point x="603" y="-77"/>
      <point x="603" y="-53" type="curve"/>
      <point x="603" y="7"/>
      <point x="552" y="32"/>
      <point x="506" y="46" type="curve"/>
      <point x="514" y="50"/>
      <point x="573" y="82"/>
      <point x="621" y="99" type="curve" smooth="yes"/>
      <point x="662" y="113"/>
      <point x="729" y="136"/>
      <point x="797" y="136" type="curve" smooth="yes"/>
      <point x="845" y="136" type="line"/>
      <point x="869" y="174"/>
      <point x="882" y="204"/>
      <point x="896" y="246" type="curve"/>
    </contour>
    <contour>
      <point x="763" y="44" type="move" name="bottom_1"/>
    </contour>
    <contour>
      <point x="527" y="437" type="move" name="top_2"/>
    </contour>
    <contour>
      <point x="636" y="0" type="move" name="caret_2"/>
    </contour>
    <contour>
      <point x="319" y="0" type="move" name="caret_1"/>
    </contour>
    <contour>
      <point x="290" y="-308" type="move" name="bottom_3"/>
    </contour>
    <contour>
      <point x="748" y="529" type="move" name="top_1"/>
    </contour>
    <contour>
      <point x="638" y="-199" type="move" name="bottom_2"/>
    </contour>
    <contour>
      <point x="238" y="40" type="move" name="top_3"/>
    </contour>
  </outline>
</glyph>
<glyph name="uni066E0645.fina" format="1">
  <advance width="523"/>
  <outline>
    <contour>
      <point x="480" y="112" type="line" smooth="yes"/>
      <point x="439" y="112"/>
      <point x="415" y="134"/>
      <point x="394" y="154" type="curve" smooth="yes"/>
      <point x="372" y="176"/>
      <point x="351" y="198"/>
      <point x="316" y="198" type="curve" smooth="yes"/>
      <point x="268" y="198"/>
      <point x="226" y="160"/>
      <point x="202" y="125" type="curve" smooth="yes"/>
      <point x="180" y="94"/>
      <point x="162" y="55"/>
      <point x="156" y="19" type="curve"/>
      <point x="120" y="0"/>
      <point x="103" y="-12"/>
      <point x="83" y="-45" type="curve" smooth="yes"/>
      <point x="64" y="-73"/>
      <point x="52" y="-113"/>
      <point x="60" y="-164" type="curve" smooth="yes"/>
      <point x="92" y="-361"/>
      <point x="99" y="-440"/>
      <point x="103" y="-485" type="curve"/>
      <point x="146" y="-471" type="line"/>
      <point x="145" y="-413"/>
      <point x="138" y="-319"/>
      <point x="128" y="-221" type="curve" smooth="yes"/>
      <point x="123" y="-169"/>
      <point x="119" y="-140"/>
      <point x="112" y="-95" type="curve"/>
      <point x="134" y="-74"/>
      <point x="151" y="-61"/>
      <point x="209" y="-61" type="curve" smooth="yes"/>
      <point x="252" y="-61"/>
      <point x="289" y="-72"/>
      <point x="323" y="-81" type="curve"/>
      <point x="343" y="-53"/>
      <point x="356" y="-27"/>
      <point x="366" y="5" type="curve"/>
      <point x="349" y="28"/>
      <point x="293" y="64"/>
      <point x="233" y="74" type="curve"/>
      <point x="252" y="98"/>
      <point x="274" y="117"/>
      <point x="304" y="117" type="curve" smooth="yes"/>
      <point x="350" y="117"/>
      <point x="373" y="91"/>
      <point x="392" y="64" type="curve" smooth="yes"/>
      <point x="414" y="32"/>
      <point x="433" y="0"/>
      <point x="490" y="0" type="curve" smooth="yes"/>
      <point x="523" y="0" type="line"/>
      <point x="523" y="112" type="line"/>
    </contour>
    <contour>
      <point x="260" y="0" type="move" name="caret_1"/>
    </contour>
    <contour>
      <point x="309" y="-141" type="move" name="bottom_1"/>
    </contour>
    <contour>
      <point x="288" y="228" type="move" name="top_1"/>
    </contour>
    <contour>
      <point x="71" y="112" type="move" name="top_2"/>
    </contour>
    <contour>
      <point x="124" y="-507" type="move" name="bottom_2"/>
    </contour>
  </outline>
</glyph>
<glyph name="uni06A1.medi" format="1">
  <advance width="416"/>
  <outline>
    <contour>
      <point x="156" y="322"/>
      <point x="127" y="302"/>
      <point x="103" y="270" type="curve" smooth="yes"/>
      <point x="80" y="240"/>
      <point x="64" y="200"/>
      <point x="63" y="166" type="curve" smooth="yes"/>
      <point x="63" y="136"/>
      <point x="77" y="116"/>
      <point x="79" y="112" type="curve"/>
      <point x="-18" y="112" type="line" smooth="yes"/>
      <point x="-48" y="112"/>
      <point x="-74" y="87"/>
      <point x="-74" y="55" type="curve" smooth="yes"/>
      <point x="-74" y="27"/>
      <point x="-54" y="0"/>
      <point x="-18" y="0" type="curve" smooth="yes"/>
      <point x="101" y="0" type="line" smooth="yes"/>
      <point x="179" y="0"/>
      <point x="215" y="23"/>
      <point x="230" y="45" type="curve"/>
      <point x="235" y="33"/>
      <point x="258" y="0"/>
      <point x="324" y="0" type="curve" smooth="yes"/>
      <point x="416" y="0" type="line"/>
      <point x="416" y="112" type="line"/>
      <point x="257" y="112" type="line"/>
      <point x="259" y="119"/>
      <point x="272" y="149"/>
      <point x="272" y="194" type="curve" smooth="yes"/>
      <point x="271" y="276"/>
      <point x="228" y="322"/>
      <point x="185" y="322" type="curve" smooth="yes"/>
    </contour>
    <contour>
      <point x="230" y="160"/>
      <point x="204" y="123"/>
      <point x="167" y="123" type="curve" smooth="yes"/>
      <point x="125" y="123"/>
      <point x="106" y="173"/>
      <point x="105" y="177" type="curve"/>
      <point x="107" y="181"/>
      <point x="135" y="230"/>
      <point x="166" y="230" type="curve" smooth="yes"/>
      <point x="192" y="230"/>
      <point x="229" y="195"/>
      <point x="231" y="178" type="curve"/>
    </contour>
    <contour>
      <point x="185" y="352" type="move" name="top"/>
    </contour>
    <contour>
      <point x="126" y="-26" type="move" name="bottom"/>
    </contour>
  </outline>
</glyph>
<glyph name="uni06A10649.fina" format="1">
  <advance width="841"/>
  <outline>
    <contour>
      <point x="690" y="112" type="line"/>
      <point x="718" y="131"/>
      <point x="730" y="169"/>
      <point x="730" y="205" type="curve" smooth="yes"/>
      <point x="728" y="258"/>
      <point x="699" y="309"/>
      <point x="650" y="309" type="curve" smooth="yes"/>
      <point x="632" y="309"/>
      <point x="611" y="301"/>
      <point x="590" y="285" type="curve" smooth="yes"/>
      <point x="560" y="261"/>
      <point x="531" y="220"/>
      <point x="527" y="180" type="curve" smooth="yes"/>
      <point x="523" y="146"/>
      <point x="528" y="115"/>
      <point x="542" y="88" type="curve"/>
      <point x="529" y="81"/>
      <point x="513" y="73"/>
      <point x="500" y="65" type="curve" smooth="yes"/>
      <point x="477" y="52"/>
      <point x="459" y="41"/>
      <point x="451" y="34" type="curve"/>
      <point x="440" y="24"/>
      <point x="427" y="2"/>
      <point x="420" y="-47" type="curve"/>
      <point x="441" y="-52"/>
      <point x="453" y="-55"/>
      <point x="478" y="-63" type="curve"/>
      <point x="512" y="-75"/>
      <point x="535" y="-91"/>
      <point x="535" y="-110" type="curve" smooth="yes"/>
      <point x="535" y="-131"/>
      <point x="500" y="-155"/>
      <point x="457" y="-171" type="curve" smooth="yes"/>
      <point x="424" y="-184"/>
      <point x="366" y="-201"/>
      <point x="299" y="-201" type="curve" smooth="yes"/>
      <point x="226" y="-201"/>
      <point x="174" y="-185"/>
      <point x="145" y="-149" type="curve" smooth="yes"/>
      <point x="117" y="-115"/>
      <point x="116" y="-64"/>
      <point x="130" y="-4" type="curve"/>
      <point x="103" y="5" type="line"/>
      <point x="86" y="-34"/>
      <point x="77" y="-70"/>
      <point x="71" y="-113" type="curve" smooth="yes"/>
      <point x="67" y="-150"/>
      <point x="71" y="-187"/>
      <point x="84" y="-217" type="curve" smooth="yes"/>
      <point x="98" y="-253"/>
      <point x="125" y="-280"/>
      <point x="161" y="-299" type="curve" smooth="yes"/>
      <point x="196" y="-317"/>
      <point x="239" y="-327"/>
      <point x="290" y="-327" type="curve" smooth="yes"/>
      <point x="350" y="-327"/>
      <point x="413" y="-312"/>
      <point x="467" y="-283" type="curve" smooth="yes"/>
      <point x="520" y="-256"/>
      <point x="560" y="-219"/>
      <point x="580" y="-179" type="curve" smooth="yes"/>
      <point x="595" y="-151"/>
      <point x="603" y="-123"/>
      <point x="603" y="-99" type="curve"/>
      <point x="603" y="-39"/>
      <point x="558" y="-17"/>
      <point x="512" y="-3" type="curve"/>
      <point x="535" y="12"/>
      <point x="558" y="25"/>
      <point x="582" y="39" type="curve"/>
      <point x="614" y="13"/>
      <point x="661" y="0"/>
      <point x="717" y="0" type="curve" smooth="yes"/>
      <point x="841" y="0" type="line"/>
      <point x="841" y="112" type="line"/>
    </contour>
    <contour>
      <point x="688" y="162"/>
      <point x="671" y="151"/>
      <point x="652" y="145" type="curve"/>
      <point x="640" y="140"/>
      <point x="626" y="137"/>
      <point x="616" y="135" type="curve"/>
      <point x="591" y="131"/>
      <point x="577" y="144"/>
      <point x="570" y="157" type="curve"/>
      <point x="563" y="171"/>
      <point x="563" y="186"/>
      <point x="563" y="186" type="curve" smooth="yes"/>
      <point x="563" y="186"/>
      <point x="573" y="201"/>
      <point x="587" y="213" type="curve" smooth="yes"/>
      <point x="598" y="223"/>
      <point x="611" y="232"/>
      <point x="626" y="230" type="curve"/>
      <point x="639" y="228"/>
      <point x="653" y="220"/>
      <point x="664" y="209" type="curve"/>
      <point x="679" y="197"/>
      <point x="688" y="182"/>
      <point x="688" y="173" type="curve" smooth="yes"/>
    </contour>
    <contour>
      <point x="411" y="0" type="move" name="caret_1"/>
    </contour>
    <contour>
      <point x="628" y="-238" type="move" name="bottom_1"/>
    </contour>
    <contour>
      <point x="609" y="343" type="move" name="top_1"/>
    </contour>
    <contour>
      <point x="258" y="-18" type="move" name="top_2"/>
    </contour>
    <contour>
      <point x="300" y="-357" type="move" name="bottom_2"/>
    </contour>
  </outline>
</glyph>
<glyph name="uni06A90627.fina" format="1">
  <advance width="537"/>
  <outline>
    <contour>
      <point x="62" y="399"/>
      <point x="67" y="273"/>
      <point x="68" y="153" type="curve" smooth="yes"/>
      <point x="69" y="100"/>
      <point x="80" y="62"/>
      <point x="104" y="37" type="curve" smooth="yes"/>
      <point x="128" y="12"/>
      <point x="161" y="0"/>
      <point x="213" y="0" type="curve" smooth="yes"/>
      <point x="279" y="0"/>
      <point x="331" y="41"/>
      <point x="333" y="100" type="curve"/>
      <point x="354" y="47"/>
      <point x="395" y="0"/>
      <point x="479" y="0" type="curve" smooth="yes"/>
      <point x="538" y="0" type="line"/>
      <point x="538" y="112" type="line"/>
      <point x="478" y="112" type="line" smooth="yes"/>
      <point x="418" y="112"/>
      <point x="388" y="150"/>
      <point x="363" y="184" type="curve" smooth="yes"/>
      <point x="338" y="216"/>
      <point x="307" y="255"/>
      <point x="277" y="288" type="curve" smooth="yes"/>
      <point x="256" y="311"/>
      <point x="222" y="347"/>
      <point x="198" y="371" type="curve"/>
      <point x="268" y="411"/>
      <point x="352" y="455"/>
      <point x="408" y="477" type="curve"/>
      <point x="417" y="513"/>
      <point x="423" y="545"/>
      <point x="427" y="581" type="curve"/>
      <point x="348" y="544"/>
      <point x="215" y="478"/>
      <point x="131" y="411" type="curve"/>
      <point x="127" y="582" type="line"/>
      <point x="106" y="582" type="line"/>
      <point x="90" y="561"/>
      <point x="66" y="528"/>
      <point x="47" y="496" type="curve"/>
    </contour>
    <contour>
      <point x="160" y="304"/>
      <point x="194" y="270"/>
      <point x="211" y="249" type="curve" smooth="yes"/>
      <point x="232" y="225"/>
      <point x="263" y="184"/>
      <point x="287" y="147" type="curve"/>
      <point x="269" y="122"/>
      <point x="252" y="110"/>
      <point x="215" y="110" type="curve" smooth="yes"/>
      <point x="192" y="110"/>
      <point x="175" y="116"/>
      <point x="160" y="130" type="curve"/>
      <point x="146" y="143"/>
      <point x="138" y="163"/>
      <point x="137" y="185" type="curve"/>
      <point x="133" y="330" type="line"/>
    </contour>
    <contour>
      <point x="260" y="0" type="move" name="caret_1"/>
    </contour>
    <contour>
      <point x="329" y="0" type="move" name="bottom_1"/>
    </contour>
    <contour>
      <point x="292" y="569" type="move" name="top_1"/>
    </contour>
    <contour>
      <point x="17" y="562" type="move" name="top_2"/>
    </contour>
    <contour>
      <point x="101" y="0" type="move" name="bottom_2"/>
    </contour>
  </outline>
</glyph>
<glyph name="uni06CD.fina" format="1">
  <advance width="704"/>
  <outline>
    <contour>
      <point x="68" y="33"/>
      <point x="33" y="15"/>
      <point x="-9" y="4" type="curve"/>
      <point x="25" y="-40" type="line"/>
      <point x="104" y="-5" type="line"/>
      <point x="99" y="51" type="line"/>
    </contour>
    <component base="uniFEF0"/>
  </outline>
</glyph>
<glyph name="uni075A.fina" format="1">
  <advance width="520"/>
  <outline>
    <component base="uniFEAA"/>
    <component base="circumflex.below" xOffset="183" yOffset="154"/>
    <contour>
      <point x="206" y="-252" type="move" name="bottom"/>
    </contour>
  </outline>
</glyph>
<glyph name="waslaar" format="1">
  <advance width="0"/>
  <outline>
    <contour>
      <point x="79" y="801"/>
      <point x="50" y="816"/>
      <point x="34" y="816" type="curve" smooth="yes"/>
      <point x="13" y="816"/>
      <point x="-7" y="800"/>
      <point x="-22" y="782" type="curve" smooth="yes"/>
      <point x="-31" y="771"/>
      <point x="-41" y="756"/>
      <point x="-45" y="748" type="curve"/>
      <point x="-56" y="751"/>
      <point x="-65" y="753"/>
      <point x="-76" y="749" type="curve" smooth="yes"/>
      <point x="-88" y="743"/>
      <point x="-93" y="733"/>
      <point x="-95" y="728" type="curve"/>
      <point x="-96" y="723"/>
      <point x="-97" y="715"/>
      <point x="-98" y="703" type="curve"/>
      <point x="-88" y="713"/>
      <point x="-78" y="717"/>
      <point x="-67" y="717" type="curve" smooth="yes"/>
      <point x="-57" y="717"/>
      <point x="-48" y="712"/>
      <point x="-39" y="708" type="curve" smooth="yes"/>
      <point x="-29" y="703"/>
      <point x="-18" y="698"/>
      <point x="-3" y="698" type="curve" smooth="yes"/>
      <point x="54" y="698"/>
      <point x="79" y="749"/>
      <point x="79" y="780" type="curve" smooth="yes"/>
    </contour>
    <contour>
      <point x="52" y="749"/>
      <point x="36" y="740"/>
      <point x="8" y="740" type="curve" smooth="yes"/>
      <point x="-3" y="740"/>
      <point x="-18" y="740"/>
      <point x="-25" y="746" type="curve"/>
      <point x="-12" y="766"/>
      <point x="6" y="787"/>
      <point x="28" y="787" type="curve" smooth="yes"/>
      <point x="47" y="787"/>
      <point x="59" y="770"/>
      <point x="59" y="761" type="curve"/>
    </contour>
    <contour>
      <point x="-10" y="816" type="move" name="top"/>
    </contour>
    <contour>
      <point x="-10" y="676" type="move" name="_top"/>
    </contour>
  </outline>
</glyph>
